<?xml version="1.0" encoding="utf-8"?>
<!-- Generator: Adobe Illustrator 21.1.0, SVG Export Plug-In . SVG Version: 6.00 Build 0)  -->
<svg version="1.1" id="Layer_1" xmlns="http://www.w3.org/2000/svg" xmlns:xlink="http://www.w3.org/1999/xlink" x="0px" y="0px"
	 viewBox="0 0 423.3 38.5" style="enable-background:new 0 0 423.3 38.5;" xml:space="preserve">
<style type="text/css">
	.st0{fill:#73000a;}
	.st1{fill:#FFFFFF;}
</style>
<g>
	<g>
		<path class="st0" d="M0,0.8h4.9l7.8,10v-10h5.2v18.9h-4.6L5.2,9.3v10.4H0V0.8z"/>
		<path class="st0" d="M19.9,15.5L19.9,15.5c0-3.1,2.3-4.6,5.7-4.6c1.3,0,2.7,0.2,3.5,0.6v-0.2c0-1.5-0.9-2.4-2.9-2.4
			c-1.5,0-2.7,0.3-4,0.8L21.1,6c1.6-0.7,3.4-1.1,5.9-1.1c2.6,0,4.4,0.6,5.6,1.8c1.1,1.1,1.6,2.6,1.6,4.6v8.4h-5v-1.5
			c-1,1.1-2.4,1.9-4.3,1.9C22,20,19.9,18.4,19.9,15.5z M29.2,14.4v-0.7c-0.5-0.2-1.3-0.4-2-0.4c-1.5,0-2.3,0.7-2.3,1.8v0.1
			c0,1,0.8,1.6,1.8,1.6C28.2,16.8,29.2,15.9,29.2,14.4z"/>
		<path class="st0" d="M37.3,15.2v-6h-1.7V5.1h1.7V1.4h5.1v3.7h3.4v4.1h-3.4v5c0,1,0.5,1.5,1.4,1.5c0.7,0,1.3-0.2,1.9-0.5v4
			c-0.9,0.5-2.1,0.9-3.6,0.9C39.1,20,37.3,18.7,37.3,15.2z"/>
		<path class="st0" d="M47.8,0h5.3v3.8h-5.3V0z M47.9,5.1H53v14.6h-5.1V5.1z"/>
		<path class="st0" d="M54.5,5.1h5.4l2.8,8.5l2.8-8.5h5.3L65,19.8h-4.7L54.5,5.1z"/>
		<path class="st0" d="M70.8,12.5L70.8,12.5c0-4.3,3.1-7.7,7.4-7.7c5,0,7.3,3.7,7.3,8c0,0.3,0,0.7,0,1.1h-9.8
			c0.4,1.6,1.6,2.4,3.2,2.4c1.2,0,2.2-0.5,3.2-1.5l2.8,2.3c-1.4,1.8-3.4,3-6.3,3C74,20.1,70.8,17,70.8,12.5z M80.7,11.2
			c-0.2-1.6-1.2-2.6-2.6-2.6c-1.3,0-2.3,1-2.5,2.6H80.7z"/>
		<path class="st0" d="M101.5,0.7h5l8,19h-5.6l-1.3-3.4h-7.3l-1.3,3.4h-5.5L101.5,0.7z M106.1,12.2l-2.1-5.3l-2.1,5.3H106.1z"/>
		<path class="st0" d="M115.8,5.1h5.1v2c0.9-1.2,2.3-2.3,4.3-2.3c1.9,0,3.4,0.9,4.2,2.4c1.3-1.5,2.8-2.4,4.9-2.4c3.1,0,5,1.9,5,5.3
			v9.6h-5.1v-7.9c0-1.6-0.8-2.5-2-2.5c-1.2,0-2.1,0.9-2.1,2.5v7.9h-5.1v-7.9c0-1.6-0.8-2.5-2-2.5c-1.2,0-2.1,0.9-2.1,2.5v7.9h-5.1
			V5.1z"/>
		<path class="st0" d="M141.2,12.5L141.2,12.5c0-4.3,3.1-7.7,7.4-7.7c5,0,7.3,3.7,7.3,8c0,0.3,0,0.7,0,1.1h-9.8
			c0.4,1.6,1.6,2.4,3.2,2.4c1.2,0,2.2-0.5,3.2-1.5l2.8,2.3c-1.4,1.8-3.4,3-6.3,3C144.4,20.1,141.2,17,141.2,12.5z M151.1,11.2
			c-0.2-1.6-1.2-2.6-2.6-2.6c-1.3,0-2.3,1-2.5,2.6H151.1z"/>
		<path class="st0" d="M157.9,5.1h5.1V8c0.8-2,2.2-3.3,4.6-3.2v5.4h-0.4c-2.7,0-4.2,1.5-4.2,4.9v4.6h-5.1V5.1z"/>
		<path class="st0" d="M169.2,0h5.3v3.8h-5.3V0z M169.3,5.1h5.1v14.6h-5.1V5.1z"/>
		<path class="st0" d="M176.4,12.5L176.4,12.5c0-4.2,3.2-7.7,7.8-7.7c3,0,5,1.3,6.2,3.2l-3.5,2.6c-0.7-0.9-1.5-1.5-2.7-1.5
			c-1.7,0-2.9,1.5-2.9,3.3v0.1c0,1.9,1.2,3.3,2.9,3.3c1.2,0,2-0.6,2.8-1.5l3.4,2.5c-1.4,2-3.3,3.3-6.5,3.3
			C179.7,20.1,176.4,16.6,176.4,12.5z"/>
		<path class="st0" d="M191.4,15.5L191.4,15.5c0-3.1,2.3-4.6,5.7-4.6c1.3,0,2.7,0.2,3.5,0.6v-0.2c0-1.5-0.9-2.4-2.9-2.4
			c-1.5,0-2.7,0.3-4,0.8L192.6,6c1.6-0.7,3.4-1.1,5.9-1.1c2.6,0,4.4,0.6,5.6,1.8c1.1,1.1,1.6,2.6,1.6,4.6v8.4h-5v-1.5
			c-1,1.1-2.4,1.9-4.3,1.9C193.5,20,191.4,18.4,191.4,15.5z M200.7,14.4v-0.7c-0.5-0.2-1.3-0.4-2-0.4c-1.5,0-2.3,0.7-2.3,1.8v0.1
			c0,1,0.8,1.6,1.8,1.6C199.6,16.8,200.7,15.9,200.7,14.4z"/>
		<path class="st0" d="M208,5.1h5.1v2.1c0.9-1.2,2.3-2.4,4.4-2.4c3.1,0,5,2.1,5,5.4v9.6h-5.1v-7.9c0-1.6-0.8-2.5-2.1-2.5
			c-1.2,0-2.2,0.9-2.2,2.5v7.9H208V5.1z"/>
		<path class="st1" d="M232.1,17l1.3-1.6c2,1.8,3.9,2.7,6.5,2.7c2.5,0,4.2-1.3,4.2-3.2v-0.1c0-1.8-0.9-2.8-4.9-3.6c-4.3-0.9-6.3-2.3-6.3-5.5V5.7
			c0-3,2.6-5.2,6.2-5.2c2.8,0,4.7,0.8,6.6,2.3l-1.2,1.6c-1.8-1.4-3.5-2.1-5.5-2.1c-2.5,0-4,1.3-4,3v0.1c0,1.8,1,2.8,5.1,3.7
			c4.2,0.9,6.2,2.5,6.2,5.3v0.1c0,3.2-2.7,5.3-6.5,5.3C236.8,20,234.4,19,232.1,17z"/>
		<path class="st1" d="M250.6,16V7.6h-1.9V5.8h1.9V1.5h2.1v4.2h4.4v1.8h-4.4v8.2c0,1.7,0.9,2.3,2.3,2.3c0.7,0,1.3-0.1,2-0.5v1.8
			c-0.7,0.4-1.5,0.6-2.5,0.6C252.3,19.9,250.6,18.8,250.6,16z"/>
		<path class="st1" d="M260.3,14.4V5.8h2.1v8.2c0,2.6,1.4,4.2,3.9,4.2c2.4,0,4.2-1.8,4.2-4.4v-8h2.1v14h-2.1v-2.4c-0.9,1.5-2.4,2.7-4.8,2.7
			C262.3,20,260.3,17.7,260.3,14.4z"/>
		<path class="st1" d="M276.1,12.8L276.1,12.8c0-4.6,3.3-7.3,6.7-7.3c2.6,0,4.3,1.4,5.3,3V0h2.1v19.7h-2.1v-2.8c-1.1,1.7-2.8,3.1-5.3,3.1
			C279.4,20,276.1,17.4,276.1,12.8z M288.2,12.7L288.2,12.7c0-3.3-2.5-5.4-5-5.4c-2.7,0-4.9,2-4.9,5.4v0.1c0,3.3,2.3,5.4,4.9,5.4
			C285.7,18.1,288.2,16,288.2,12.7z"/>
		<path class="st1" d="M294.6,0.4h2.4v2.3h-2.4V0.4z M294.7,5.8h2.1v14h-2.1V5.8z"/>
		<path class="st1" d="M300.5,12.8L300.5,12.8c0-4.1,2.8-7.3,6.7-7.3c4.1,0,6.5,3.3,6.5,7.4c0,0.3,0,0.4,0,0.7h-11.1c0.3,3,2.4,4.7,4.9,4.7
			c1.9,0,3.3-0.8,4.4-2l1.3,1.2c-1.4,1.6-3.1,2.6-5.7,2.6C303.6,20,300.5,17.1,300.5,12.8z M311.6,12c-0.2-2.5-1.7-4.8-4.5-4.8
			c-2.4,0-4.3,2-4.5,4.8H311.6z"/>
		<path class="st1" d="M315.9,17.9l1.1-1.5c1.5,1.1,3.2,1.8,4.8,1.8c1.7,0,2.9-0.9,2.9-2.2V16c0-1.4-1.6-1.9-3.5-2.5c-2.2-0.6-4.6-1.4-4.6-3.9
			V9.5c0-2.4,2-4,4.8-4c1.7,0,3.6,0.6,5,1.5l-0.9,1.6c-1.3-0.8-2.8-1.3-4.1-1.3c-1.6,0-2.7,0.9-2.7,2v0.1c0,1.3,1.7,1.8,3.6,2.4
			c2.2,0.6,4.5,1.5,4.5,4v0.1c0,2.6-2.2,4.2-5,4.2C319.7,20,317.5,19.2,315.9,17.9z"/>
		<path class="st1" d="M337.6,10.3L337.6,10.3c0-5.4,4-9.8,9.6-9.8c3.4,0,5.5,1.2,7.4,3L353.1,5c-1.6-1.5-3.4-2.6-5.9-2.6
			c-4.2,0-7.3,3.4-7.3,7.7v0.1c0,4.4,3.2,7.8,7.3,7.8c2.6,0,4.3-1,6.1-2.7l1.4,1.4c-2,2-4.1,3.3-7.6,3.3
			C341.6,20,337.6,15.7,337.6,10.3z"/>
		<path class="st1" d="M356.6,12.8L356.6,12.8c0-4.1,2.8-7.3,6.7-7.3c4.1,0,6.5,3.3,6.5,7.4c0,0.3,0,0.4,0,0.7h-11.1c0.3,3,2.4,4.7,4.9,4.7
			c1.9,0,3.3-0.8,4.4-2l1.3,1.2c-1.4,1.6-3.1,2.6-5.7,2.6C359.7,20,356.6,17.1,356.6,12.8z M367.7,12c-0.2-2.5-1.7-4.8-4.5-4.8
			c-2.4,0-4.3,2-4.5,4.8H367.7z"/>
		<path class="st1" d="M373.2,5.8h2.1v2.4c0.9-1.5,2.4-2.7,4.8-2.7c3.4,0,5.3,2.3,5.3,5.6v8.7h-2.1v-8.2c0-2.6-1.4-4.2-3.9-4.2
			c-2.4,0-4.2,1.8-4.2,4.4v8h-2.1V5.8z"/>
		<path class="st1" d="M390.3,16V7.6h-1.9V5.8h1.9V1.5h2.1v4.2h4.4v1.8h-4.4v8.2c0,1.7,0.9,2.3,2.3,2.3c0.7,0,1.3-0.1,2-0.5v1.8
			c-0.7,0.4-1.5,0.6-2.5,0.6C392,19.9,390.3,18.8,390.3,16z"/>
		<path class="st1" d="M398.9,12.8L398.9,12.8c0-4.1,2.8-7.3,6.7-7.3c4.1,0,6.5,3.3,6.5,7.4c0,0.3,0,0.4,0,0.7H401c0.3,3,2.4,4.7,4.9,4.7
			c1.9,0,3.3-0.8,4.4-2l1.3,1.2c-1.4,1.6-3.1,2.6-5.7,2.6C402.1,20,398.9,17.1,398.9,12.8z M410,12c-0.2-2.5-1.7-4.8-4.5-4.8
			c-2.4,0-4.3,2-4.5,4.8H410z"/>
		<path class="st1" d="M415.5,5.8h2.1v3.6c1-2.3,3.1-4,5.7-3.9v2.2h-0.2c-3.1,0-5.5,2.2-5.5,6.4v5.6h-2.1V5.8z"/>
	</g>
	<g>
		<path class="st1" d="M-0.3,34.8v-4.7h2.4v4.7c0,1.2,0.6,1.8,1.5,1.8c0.9,0,1.6-0.6,1.6-1.7v-4.7h2.4v4.7c0,2.7-1.5,3.9-3.9,3.9
			C1.2,38.6-0.3,37.4-0.3,34.8z"/>
		<path class="st1" d="M8.9,30.1h2.2l3.5,4.4v-4.4h2.3v8.4h-2l-3.6-4.6v4.6H8.9V30.1z"/>
		<path class="st1" d="M18.4,30.1h2.3v8.4h-2.3V30.1z"/>
		<path class="st1" d="M21.6,30.1h2.6l1.9,5.3l1.9-5.3h2.5l-3.4,8.5H25L21.6,30.1z"/>
		<path class="st1" d="M31.4,30.1h6.8v2h-4.5v1.3h4v1.8h-4v1.3h4.5v2h-6.8V30.1z"/>
		<path class="st1" d="M39.4,30.1h4c1.3,0,2.2,0.3,2.7,0.9c0.5,0.5,0.7,1.1,0.7,2v0c0,1.3-0.7,2.1-1.7,2.6l2,2.9h-2.7l-1.7-2.5h-1v2.5h-2.3V30.1
			z M43.3,34.1c0.8,0,1.2-0.4,1.2-1v0c0-0.7-0.5-1-1.3-1h-1.5v2H43.3z"/>
		<path class="st1" d="M47.4,37.2l1.3-1.5c0.8,0.7,1.8,1,2.7,1c0.6,0,1-0.2,1-0.6v0c0-0.4-0.3-0.5-1.4-0.8c-1.8-0.4-3.2-0.9-3.2-2.6v0
			c0-1.6,1.2-2.7,3.3-2.7c1.4,0,2.5,0.4,3.5,1.1l-1.2,1.6c-0.8-0.6-1.6-0.8-2.4-0.8c-0.6,0-0.8,0.2-0.8,0.5v0c0,0.4,0.3,0.6,1.5,0.8
			c1.9,0.4,3.1,1,3.1,2.6v0c0,1.7-1.4,2.7-3.4,2.7C49.8,38.6,48.4,38.2,47.4,37.2z"/>
		<path class="st1" d="M55.9,30.1h2.3v8.4h-2.3V30.1z"/>
		<path class="st1" d="M61.8,32.1h-2.5v-2h7.4v2h-2.5v6.4h-2.3V32.1z"/>
		<path class="st1" d="M70.1,35.3l-3.2-5.3h2.7l1.7,3.1l1.7-3.1h2.6l-3.2,5.2v3.2h-2.3V35.3z"/>
		<path class="st1" d="M79.4,34.3L79.4,34.3c0-2.4,1.9-4.4,4.5-4.4c2.6,0,4.5,1.9,4.5,4.3v0c0,2.4-1.9,4.4-4.5,4.4
			C81.3,38.7,79.4,36.7,79.4,34.3z M86.1,34.3L86.1,34.3c0-1.2-0.9-2.3-2.1-2.3s-2.1,1-2.1,2.2v0c0,1.2,0.9,2.3,2.2,2.3
			C85.2,36.6,86.1,35.5,86.1,34.3z"/>
		<path class="st1" d="M89.7,30.1h6.7v2H92v1.4h4v1.9h-4v3h-2.3V30.1z"/>
		<path class="st1" d="M100.1,37.2l1.3-1.5c0.8,0.7,1.8,1,2.7,1c0.6,0,1-0.2,1-0.6v0c0-0.4-0.3-0.5-1.4-0.8c-1.8-0.4-3.2-0.9-3.2-2.6v0
			c0-1.6,1.2-2.7,3.3-2.7c1.4,0,2.5,0.4,3.5,1.1l-1.2,1.6c-0.8-0.6-1.6-0.8-2.4-0.8c-0.6,0-0.8,0.2-0.8,0.5v0c0,0.4,0.3,0.6,1.5,0.8
			c1.9,0.4,3.1,1,3.1,2.6v0c0,1.7-1.4,2.7-3.4,2.7C102.6,38.6,101.2,38.2,100.1,37.2z"/>
		<path class="st1" d="M108.3,34.3L108.3,34.3c0-2.4,1.9-4.4,4.5-4.4c2.6,0,4.5,1.9,4.5,4.3v0c0,2.4-1.9,4.4-4.5,4.4
			C110.2,38.7,108.3,36.7,108.3,34.3z M115,34.3L115,34.3c0-1.2-0.9-2.3-2.1-2.3c-1.3,0-2.1,1-2.1,2.2v0c0,1.2,0.9,2.3,2.2,2.3
			C114.1,36.6,115,35.5,115,34.3z"/>
		<path class="st1" d="M118.5,34.8v-4.7h2.4v4.7c0,1.2,0.6,1.8,1.5,1.8c0.9,0,1.6-0.6,1.6-1.7v-4.7h2.4v4.7c0,2.7-1.5,3.9-3.9,3.9
			C120,38.6,118.5,37.4,118.5,34.8z"/>
		<path class="st1" d="M129.7,32.1h-2.5v-2h7.4v2H132v6.4h-2.3V32.1z"/>
		<path class="st1" d="M135.6,30.1h2.3v3.1h3v-3.1h2.3v8.4h-2.3v-3.2h-3v3.2h-2.3V30.1z"/>
		<path class="st1" d="M147.8,34.3L147.8,34.3c0-2.5,1.9-4.4,4.4-4.4c1.7,0,2.8,0.7,3.6,1.7L154,33c-0.5-0.6-1-1-1.8-1c-1.2,0-2,1-2,2.2v0
			c0,1.3,0.8,2.2,2,2.2c0.9,0,1.4-0.4,1.9-1l1.8,1.2c-0.8,1.1-1.9,1.9-3.7,1.9C149.7,38.7,147.8,36.8,147.8,34.3z"/>
		<path class="st1" d="M159.6,30h2.2l3.6,8.5H163l-0.6-1.5h-3.3l-0.6,1.5h-2.4L159.6,30z M161.7,35.2l-0.9-2.4l-0.9,2.4H161.7z"/>
		<path class="st1" d="M166.3,30.1h4c1.3,0,2.2,0.3,2.7,0.9c0.5,0.5,0.7,1.1,0.7,2v0c0,1.3-0.7,2.1-1.7,2.6l2,2.9h-2.7l-1.7-2.5h-1v2.5h-2.3
			V30.1z M170.2,34.1c0.8,0,1.2-0.4,1.2-1v0c0-0.7-0.5-1-1.3-1h-1.5v2H170.2z"/>
		<path class="st1" d="M174.6,34.3L174.6,34.3c0-2.4,1.9-4.4,4.5-4.4c2.6,0,4.5,1.9,4.5,4.3v0c0,2.4-1.9,4.4-4.5,4.4
			C176.5,38.7,174.6,36.7,174.6,34.3z M181.3,34.3L181.3,34.3c0-1.2-0.9-2.3-2.1-2.3c-1.3,0-2.1,1-2.1,2.2v0c0,1.2,0.9,2.3,2.2,2.3
			C180.4,36.6,181.3,35.5,181.3,34.3z"/>
		<path class="st1" d="M184.9,30.1h2.3v6.4h4.1v2h-6.4V30.1z"/>
		<path class="st1" d="M192.3,30.1h2.3v8.4h-2.3V30.1z"/>
		<path class="st1" d="M196.2,30.1h2.2l3.5,4.4v-4.4h2.3v8.4h-2l-3.6-4.6v4.6h-2.3V30.1z"/>
		<path class="st1" d="M208.5,30h2.2l3.6,8.5h-2.5l-0.6-1.5H208l-0.6,1.5H205L208.5,30z M210.6,35.2l-0.9-2.4l-0.9,2.4H210.6z"/>
		<path class="st1" d="M218.5,30.1h2.3v6.4h4.1v2h-6.4V30.1z"/>
		<path class="st1" d="M228.8,30h2.2l3.6,8.5h-2.5l-0.6-1.5h-3.3l-0.6,1.5h-2.4L228.8,30z M230.8,35.2l-0.9-2.4l-0.9,2.4H230.8z"/>
		<path class="st1" d="M235.4,30.1h2.2l3.5,4.4v-4.4h2.3v8.4h-2l-3.6-4.6v4.6h-2.3V30.1z"/>
		<path class="st1" d="M244.6,34.3L244.6,34.3c0-2.5,1.9-4.4,4.4-4.4c1.7,0,2.8,0.7,3.6,1.7l-1.8,1.4c-0.5-0.6-1-1-1.8-1c-1.2,0-2,1-2,2.2v0
			c0,1.3,0.8,2.2,2,2.2c0.9,0,1.4-0.4,1.9-1l1.8,1.2c-0.8,1.1-1.9,1.9-3.7,1.9C246.5,38.7,244.6,36.8,244.6,34.3z"/>
		<path class="st1" d="M256.5,30h2.2l3.6,8.5h-2.5l-0.6-1.5h-3.3l-0.6,1.5h-2.4L256.5,30z M258.5,35.2l-0.9-2.4l-0.9,2.4H258.5z"/>
		<path class="st1" d="M262.3,37.2l1.3-1.5c0.8,0.7,1.8,1,2.7,1c0.6,0,1-0.2,1-0.6v0c0-0.4-0.3-0.5-1.4-0.8c-1.8-0.4-3.2-0.9-3.2-2.6v0
			c0-1.6,1.2-2.7,3.3-2.7c1.4,0,2.5,0.4,3.5,1.1l-1.2,1.6c-0.8-0.6-1.6-0.8-2.4-0.8c-0.6,0-0.8,0.2-0.8,0.5v0c0,0.4,0.3,0.6,1.5,0.8
			c1.9,0.4,3.1,1,3.1,2.6v0c0,1.7-1.4,2.7-3.4,2.7C264.8,38.6,263.4,38.2,262.3,37.2z"/>
		<path class="st1" d="M272.6,32.1h-2.5v-2h7.4v2h-2.5v6.4h-2.3V32.1z"/>
		<path class="st1" d="M278.5,30.1h6.8v2h-4.5v1.3h4v1.8h-4v1.3h4.5v2h-6.8V30.1z"/>
		<path class="st1" d="M286.5,30.1h4c1.3,0,2.2,0.3,2.7,0.9c0.5,0.5,0.7,1.1,0.7,2v0c0,1.3-0.7,2.1-1.7,2.6l2,2.9h-2.7l-1.7-2.5h-1v2.5h-2.3
			V30.1z M290.4,34.1c0.8,0,1.2-0.4,1.2-1v0c0-0.7-0.5-1-1.3-1h-1.5v2H290.4z"/>
	</g>
</g>
</svg>
