<?xml version="1.0" encoding="utf-8"?>
<!-- Generator: Adobe Illustrator 21.1.0, SVG Export Plug-In . SVG Version: 6.00 Build 0)  -->
<svg version="1.1" id="Layer_1" xmlns="http://www.w3.org/2000/svg" xmlns:xlink="http://www.w3.org/1999/xlink" x="0px" y="0px"
	 viewBox="0 0 563.7 143.8" enable-background="new 0 0 563.7 143.8" xml:space="preserve">
<g>
	<path fill="#FFFFFF" d="M55.9,138c-4.8,0-7.6-0.5-12.1-2.1c-4.3-1.5-6.7-2.8-10.3-5.7l1.6-2.5c3.3,2.6,5.3,3.9,9.3,5.3
		c4.2,1.6,6.9,2,11.4,2.1c4.5,0,7.3-0.5,11.5-2.1c3.9-1.4,6-2.7,9.3-5.3l1.6,2.5c-3.6,2.9-6,4.2-10.3,5.7
		C63.5,137.5,60.7,138,55.9,138z"/>
	<g>
		<path fill="#FFFFFF" d="M41.9,128.9l2.6,1.2c-0.4-0.3-0.4-0.6-0.1-1.2l2.1-4.4c-0.4,0-1-0.1-2.1-0.4l-0.2-0.1c0,0,0.1,0.1,0.1,0.1
			c0.3,0.3,0.4,0.5,0.2,1c0,0-1.4,3-1.4,3c-0.4,0.8-0.5,0.8-1,0.8C42.1,128.9,42,128.9,41.9,128.9z"/>
	</g>
	<g>
		<path fill="#FFFFFF" d="M51.9,127.8L51.9,127.8c-1.1-0.7-1.4-1.3-1.2-2.1c0.2-0.7,0.8-1.1,1.5-0.9c0.7,0.2,1.1,0.9,0.9,1.8
			C52.9,127.2,52.4,127.6,51.9,127.8z M50.7,128.5c1.5,0.9,2,1.7,1.7,2.8c-0.3,1-1,1.5-1.9,1.2c-1-0.3-1.4-1.2-1.1-2.4
			C49.7,129.3,50.1,128.7,50.7,128.5z M50.4,128.2l-0.2,0c-0.4,0.1-0.6,0.1-0.9,0.1c-0.8,0.2-1.4,0.7-1.6,1.4
			c-0.4,1.3,0.6,2.5,2.4,3c1.8,0.5,3.4-0.2,3.8-1.6c0.1-0.3,0.1-0.7,0-1c-0.1-0.7-0.5-1.2-1.6-2c0,0-0.1-0.1-0.2-0.2
			c1.2,0,2-0.4,2.2-1.3c0.3-1-0.6-1.9-2-2.3c-1.6-0.4-2.9,0.1-3.2,1.4c-0.2,0.6,0,1.2,0.4,1.7C49.8,127.8,49.9,127.9,50.4,128.2z"/>
	</g>
	<g>
		<path fill="#FFFFFF" d="M60.9,131.9c-1.1,0.2-2.1-0.9-2.4-2.6c-0.3-1.6,0.2-2.8,1.2-2.9c1.1-0.2,2.2,1,2.5,2.7
			C62.4,130.5,61.9,131.7,60.9,131.9z M60.9,132.3c2.2-0.4,3.5-1.9,3.1-3.8c-0.3-1.9-2.1-2.9-4.4-2.5c-0.5,0.1-1.1,0.3-1.6,0.6
			c-1.3,0.7-1.8,1.8-1.5,3.2C56.9,131.7,58.6,132.7,60.9,132.3z"/>
	</g>
	<g>
		<path fill="#FFFFFF" d="M67.6,129.9l2.6-1.3c-0.4,0.1-0.7-0.1-1-0.7l-2.1-4.4c-0.3,0.3-0.7,0.7-1.7,1.3l-0.1,0.1
			c0.1,0,0.1,0,0.1,0c0.4-0.1,0.6,0,0.9,0.5c0,0,1.4,2.9,1.5,3c0.3,0.8,0.3,0.9,0,1.3C67.7,129.9,67.7,129.9,67.6,129.9z"/>
	</g>
	<polygon fill="#FFFFFF" points="70,76.3 89.1,76.3 86.9,79.8 72.1,79.8 	"/>
	<polygon fill="#FFFFFF" points="72.5,81.4 86.9,81.4 86.9,93.8 109.8,93.8 109.8,95.3 86.9,95.3 86.9,111.2 84,111.2 84,84.4 
		75.6,84.4 75.6,111.2 72.5,111.2 	"/>
	<path fill="#FFFFFF" d="M90.4,85.9c1.6-0.8,2.5,0,2.5,0v25.3h-2.5V85.9z"/>
	<path fill="#FFFFFF" d="M96.7,88.9c1.6-0.8,2.5,0,2.5,0v22.3h-2.5V88.9z"/>
	<path fill="#FFFFFF" d="M102.9,90.7c1.6-0.8,2.5,0,2.5,0v20.5h-2.5V90.7z"/>
	<path fill="#FFFFFF" d="M109.2,92c1.6-0.8,2.5,0,2.5,0v19.2h-2.5V92z"/>
	<path fill="#FFFFFF" d="M63.2,111.2h4.1l-5-6.5H68v-2.8h-6.1l0.1-19.9l5.6-5.8h-4.3l4.3-6.2h-4.1l3.4-4.3c1.6,1.2,2.4,2,3.6,3.6
		c1.7,2.1,2.4,3.4,3.4,5.8v-7.6c-1.2-1.1-1.9-1.6-3.3-2.4c-2.2-1.3-3.6-1.8-6.1-2.3L58.5,70H63l-4.1,6.2h3.9l-4.5,4.8l0,23
		L63.2,111.2z"/>
	<polygon fill="#FFFFFF" points="41.7,76.3 22.7,76.3 24.8,79.8 39.7,79.8 	"/>
	<polygon fill="#FFFFFF" points="39.2,81.4 24.8,81.4 24.8,93.8 2,93.8 2,95.3 24.8,95.3 24.8,111.2 27.8,111.2 27.8,84.4 
		36.1,84.4 36.1,111.2 39.2,111.2 	"/>
	<path fill="#FFFFFF" d="M21.3,85.9c-1.6-0.8-2.5,0-2.5,0v25.3h2.5V85.9z"/>
	<path fill="#FFFFFF" d="M15.1,88.9c-1.6-0.8-2.5,0-2.5,0v22.3h2.5V88.9z"/>
	<path fill="#FFFFFF" d="M8.8,90.7c-1.6-0.8-2.5,0-2.5,0v20.5h2.5V90.7z"/>
	<path fill="#FFFFFF" d="M2.5,92C1,91.2,0,92,0,92v19.2h2.5V92z"/>
	<path fill="#FFFFFF" d="M48.5,111.2h-4.1l5-6.5h-5.6v-2.8h6.1l-0.1-19.9l-4.3-5.8h4.3L44.2,70h4.1l-3.4-4.3c-1.6,1.2-2.4,2-3.6,3.6
		c-1.7,2.1-2.4,3.4-3.4,5.8v-7.6c1.2-1.1,1.9-1.6,3.3-2.4c2.2-1.3,3.6-1.8,6.1-2.3l6.1,7.1h-4.6l5.5,6.2h-3.9l3.2,4.8l0,23
		L48.5,111.2z"/>
	<g>
		<path fill="#FFFFFF" d="M60.7,57.9c2.9-1,4.8-1.2,7.9-0.9c3.9,0.4,6.2,1.3,9.3,3.5c2,1.4,3,2.4,4.4,4.4v8.9
			c-1.1-4-2.3-6.2-5.2-9.2c-2.8-2.9-4.9-4.2-8.7-5.5C65.6,58.1,63.8,57.9,60.7,57.9z"/>
		<path fill="#FFFFFF" d="M51.9,57.9c-2.9-1-4.8-1.2-7.9-0.9c-3.9,0.4-6.2,1.3-9.3,3.5c-2,1.4-3,2.4-4.4,4.4v8.9
			c1.1-4,2.3-6.2,5.2-9.2c2.8-2.9,4.9-4.2,8.7-5.5C47,58.2,48.8,57.9,51.9,57.9z"/>
		<path fill="#FFFFFF" d="M56,21.9c0.8-5.8,2.1-8.8,4.8-12.1c1.5-1.8,2.7-2.2,4.7-3.5L65.5,0c-3,1.9-4.6,3.6-6.6,6.9
			c-1.8,3.1-2.5,7.5-2.9,10.6c-0.4-3.1-1.1-7.6-2.9-10.6c-2-3.3-3.5-5-6.6-6.9l0.1,6.3c2,1.3,3.2,1.6,4.7,3.5
			C54,13.1,55.2,16.1,56,21.9z"/>
		<path fill="#FFFFFF" d="M56,32c1.2-3.1,2-4.7,3.8-7.4c2.6-3.9,4.4-6,8.1-8.8c3.2-2.4,5.3-3.6,9-4.9v-7c-3.5,1.3-4.7,2.7-7.4,4.8
			c-1.1,0.9-3.4,3-5.4,5.6c-2.2,2.7-4.1,5.9-4.8,7.3c-1,2-2.8,5.7-3.3,8.6c-0.5-2.9-2.3-6.6-3.2-8.6c-0.7-1.4-2.6-4.6-4.8-7.3
			c-2.1-2.6-4.3-4.7-5.4-5.6c-2.7-2.2-3.9-3.6-7.4-4.8v7c3.7,1.3,5.8,2.5,9,4.9c3.7,2.8,5.5,4.9,8.1,8.8C54,27.3,54.8,28.9,56,32z"
			/>
		<path fill="#FFFFFF" d="M56,37.7c1.1-2.9,2.5-6.2,5.1-9.5c2.6-3.3,4.7-4.8,8.2-7.2c6.3-4.4,10.6-6.3,18.1-7.6v7.2
			c-3.4,0.2-6.1,0.4-9.9,1.5c-4.4,1.2-6.6,2.4-10.6,4.7c-3.2,1.9-7.7,7-10.9,12.5c-3.1-5.4-7.7-10.6-10.9-12.5
			c-4-2.3-6.3-3.5-10.6-4.7c-3.8-1-6.5-1.3-9.9-1.5v-7.2c7.5,1.2,11.8,3.2,18.1,7.6c3.5,2.4,5.5,3.9,8.2,7.2
			C53.5,31.5,54.9,34.8,56,37.7z"/>
		<path fill="#FFFFFF" d="M56,44.8c-4.4-5-9.4-9-13-10.7c-4.9-2.3-8.6-3.1-14.2-2.9c-3.8,0.1-9.6,1.8-9.6,1.8l0-8.1
			c5.6,0,8.9,0.5,14.2,2.2c5.6,1.8,8.8,3.2,13.4,6.7c4.2,3.2,6.2,6,9.3,10c3.1-4,5-6.8,9.3-10c4.6-3.6,7.8-4.9,13.4-6.7
			c5.3-1.7,8.6-2.2,14.2-2.2l0,8.1c0,0-5.8-1.7-9.6-1.8c-5.7-0.2-9.4,0.6-14.2,3C65.5,35.9,60.4,39.9,56,44.8z"/>
		<path fill="#FFFFFF" d="M56,48.9c3.6-3.7,5.9-5.5,10.3-7.9c5.8-3.2,11.4-4.9,16.1-5c5.6-0.2,9.4,0.6,14.7,2.7v7.8
			c-4.3-3.7-7.2-5.3-12.6-6.3c-6.8-1.3-11.2,0-17.7,2.7c-4.6,1.9-7,3.6-10.8,7c-3.8-3.5-6.2-5.1-10.9-7c-6.4-2.7-10.8-4-17.7-2.7
			c-5.4,1-8.3,2.6-12.6,6.3l0-7.8c5.3-2.1,9.1-2.9,14.7-2.7c4.7,0.1,10.3,1.9,16.1,5C50.1,43.4,52.4,45.1,56,48.9z"/>
		<path fill="#FFFFFF" d="M56,57.3c2.8-2.4,5.4-4.2,8-5c5.2-1.6,10.7-0.3,13.8,0.6c4.1,1.2,10.3,4.5,14.5,9.8v8.4
			c-2.1-3.3-3.5-5-6.3-7.7c-3.9-3.8-6.4-6.3-11.6-7.9c-4.9-1.5-8.3-2.1-13.1-0.3c-2.3,0.9-5.4,3.3-5.4,3.3c-1.2-1.2-3.1-2.4-5.4-3.3
			c-4.8-1.8-8.2-1.2-13,0.3c-5.2,1.6-7.7,4.1-11.6,7.9c-2.8,2.7-4.2,4.4-6.3,7.7v-8.4c4.2-5.3,10.4-8.6,14.5-9.8
			c3.1-0.9,8.6-2.3,13.8-0.6C50.6,53.1,53.2,54.9,56,57.3z"/>
		<path fill="#FFFFFF" d="M56,53.3c3.4-3.5,5.6-5.1,10-6.9c7.5-3,13.1-2.6,20.8,0c5.6,1.9,8.6,3.9,12.7,8.1v10.1c-2.3-4-4-6-7.4-9.1
			c-3.9-3.5-6.6-5.4-11.5-6.9c-4.4-1.3-11-1.5-15.7,0c-2.7,0.8-5.9,2.7-8.9,5.7c-3-3-6.2-4.8-8.9-5.7c-4.8-1.5-11.3-1.3-15.7,0
			c-4.9,1.5-7.6,3.4-11.5,6.9c-3.4,3-5.1,5.1-7.4,9.1V54.5c4.1-4.2,7.1-6.2,12.7-8.1c7.7-2.6,13.3-3,20.8,0
			C50.4,48.2,52.6,49.8,56,53.3z"/>
	</g>
	<path fill="#FFFFFF" d="M55.9,144c4.7,0.1,7.7-0.3,12.5-1.7c4.1-1.2,6.6-2.1,10.1-4.6c1.3,1.3,1.5,1.8,3,2.8c2,1.3,2.5,1.7,4.7,2.5
		v-3.2c-1.7-0.8-2.5-1.4-4-2.5c-1.5-1.2-2.3-2.1-3.5-3.7c-4,3.1-6.6,4.5-11.4,6c-4.3,1.3-6.9,1.7-11.4,1.6h0h-0.1h0
		c-4.5,0.1-7.1-0.3-11.4-1.6c-4.8-1.5-7.5-2.9-11.4-6c-1.2,1.6-2,2.4-3.5,3.7c-1.4,1.1-2.3,1.7-4,2.5v3.2c2.1-0.8,2.7-1.2,4.7-2.5
		c1.4-1,1.7-1.4,3-2.8c3.5,2.5,6,3.4,10.1,4.6C48.2,143.7,51.2,144.1,55.9,144z"/>
	<path fill="#FFFFFF" d="M55.9,120c3.9,0,6.5-0.6,10-2.3c2.9-1.5,4.4-2.8,6.4-5.3l14.8,2l6.5,11.2c1.6-1.3,2.5-2.1,3.4-3.9
		c0.7-1.4,0.6-2.6,0.7-3.9c0-0.5,0.5-0.7,0.8-0.2c0.3,0.4,9.3,15,9.3,15c-1.9,2.2-3.3,3.1-6,4.2c-3.6,1.6-6.6,2-10.5,1.2
		c-4.8-0.9-7.5-2.7-10.3-6.8l-8.5-14.7c-2.2,2.2-3.7,3.3-6.5,4.6c-2.2,1-6.1,2-10.2,1.9c-4.1-0.1-8-0.9-10.2-1.9
		c-2.8-1.3-4.3-2.3-6.5-4.6l-8.5,14.7c-2.8,4.1-5.4,5.9-10.3,6.8c-3.9,0.7-6.9,0.3-10.5-1.2c-2.7-1.2-4.1-2.1-6-4.2
		c0,0,9-14.6,9.3-15c0.3-0.4,0.8-0.2,0.8,0.2c0.1,1.3,0,2.5,0.7,3.9c0.9,1.9,1.7,2.7,3.4,3.9l6.5-11.2l14.8-2
		c2.1,2.6,3.5,3.9,6.4,5.3C49.3,119.4,52,120,55.9,120L55.9,120z M34.8,116.1l-8.3,1.1l-5.8,9.9c1.6,0.8,2.8,0.8,4.6,0.5
		c2.2-0.3,4.2-0.7,5.4-2.6c0,0,4.6-7.9,4.7-7.9C36.1,115.8,34.8,116.1,34.8,116.1z M27.9,129.8c-4.4,1.3-7.4,0.6-10.3-1
		c-2.4-1.3-3.6-2.5-4.9-4.9L8,131.7c2,2.1,4.4,3.1,7.2,3.4C20.4,135.7,24,134.7,27.9,129.8z M76.4,117.1c0,0,4.7,7.9,4.7,7.9
		c1.1,1.9,3.1,2.3,5.4,2.6c1.8,0.3,3,0.2,4.6-0.5l-5.8-9.9l-8.3-1.1C77,116.1,75.7,115.8,76.4,117.1z M96.6,135.1
		c2.8-0.3,5.2-1.3,7.2-3.4l-4.8-7.7c-1.3,2.4-2.5,3.6-4.9,4.9c-2.9,1.6-5.8,2.3-10.3,1C87.8,134.7,91.4,135.7,96.6,135.1z"/>
	<g>
		<path fill="#FFFFFF" d="M109.6,117.4c1.9,0,3.3,1.5,3.4,3.4c0,1.9-1.5,3.4-3.3,3.4c-1.9,0-3.4-1.5-3.4-3.4
			C106.3,118.9,107.8,117.4,109.6,117.4L109.6,117.4z M109.6,117.9c-1.5,0-2.7,1.3-2.7,2.9c0,1.6,1.2,2.9,2.7,2.9
			c1.5,0,2.7-1.3,2.7-2.9C112.4,119.2,111.2,117.9,109.6,117.9L109.6,117.9z M109,122.8h-0.6l0-3.8c0.3,0,0.6-0.1,1.1-0.1
			c0.6,0,1,0.1,1.2,0.3c0.2,0.2,0.4,0.4,0.4,0.8c0,0.5-0.3,0.8-0.7,0.9v0c0.3,0.1,0.6,0.4,0.6,0.9c0.1,0.6,0.2,0.8,0.2,0.9h-0.6
			c-0.1-0.1-0.2-0.5-0.3-1c-0.1-0.5-0.3-0.7-0.8-0.7l-0.4,0L109,122.8z M109,120.7h0.4c0.5,0,0.9-0.2,0.9-0.7c0-0.3-0.2-0.7-0.9-0.7
			c-0.2,0-0.3,0-0.4,0V120.7z"/>
	</g>
</g>
<rect x="134.8" y="0.1" fill="#FFFFFF" width="1.5" height="143.7"/>
<g>
	<g>
		<path fill="#FFFFFF" d="M161.2,102.4h9.3v1.1c-2.7,0.2-2.9,0.3-3,1c-0.1,0.9-0.1,3-0.1,9.8c0,2.1,0.6,5.4,4.8,5.4
			c4.7,0,5.4-2.3,5.4-7.8c0-4.4,0-6.5-0.1-7.4c-0.1-0.7-0.2-0.8-3.1-1v-1.1h7.7v1.1c-2.7,0.2-2.9,0.3-3,1c-0.1,0.9-0.1,3-0.1,8.8
			c0,4.1-0.6,8-7.4,8c-4.2,0-7.3-2.2-7.3-7.2c0-6.6,0-8.8-0.1-9.7c-0.1-0.7-0.2-0.8-3-1V102.4z"/>
		<path fill="#FFFFFF" d="M181.8,119.8c1.6,0,1.9-0.2,2-0.7c0.1-0.4,0.1-1,0.1-1.5v-7c0-1-0.2-1-0.7-1c-0.4,0-0.9,0.1-1.3,0.2v-1.1
			h0.8c0.8,0,2.2-0.1,2.9-0.3h0.9v1.1c0,0.4,0.1,0.6,0.2,0.6c0.4,0,1.9-2.1,4.3-2.1c2.6,0,3.7,1.5,3.7,3.5v6.2c0,0.5,0,1.1,0.1,1.5
			c0.1,0.5,0.4,0.7,2,0.7v1.1h-6.6v-1.1c1.5,0,1.8-0.2,1.8-0.7c0.1-0.4,0.1-1,0.1-1.5v-6.9c-0.4-0.7-1.2-1.2-2-1.2
			c-1.3,0-2.6,1-3.6,2.5v5.5c0,0.5,0,1.1,0.1,1.5c0.1,0.5,0.4,0.7,1.8,0.7v1.1h-6.6V119.8z"/>
		<path fill="#FFFFFF" d="M197.6,120.9v-1.1c2.1-0.2,2.2-0.3,2.3-1c0.1-0.9,0.1-3,0.1-6c0-3-0.1-3.2-0.6-3.2c-0.4,0-1.1,0.1-1.8,0.2
			v-1.1c1.6,0,3-0.2,3.8-0.3h1.5c-0.1,1-0.2,3-0.2,5.5c0,2,0,4.1,0.1,5c0.1,0.7,0.2,0.8,2.2,1v1.1H197.6z M201.3,101.4
			c0.9,0,1.6,0.6,1.6,1.7s-0.6,1.7-1.6,1.7c-1.1,0-1.5-0.8-1.5-1.7C199.8,102.2,200.4,101.4,201.3,101.4z"/>
		<path fill="#FFFFFF" d="M205.7,108.6h6.4v1.1c-1.4,0.1-1.6,0.2-1.6,0.6c0,0.4,0.6,2.3,1.5,5.1l1.1,3.3h0.1l1.2-3.4
			c1-2.9,1.6-4.4,1.6-4.9c0-0.3-0.2-0.4-1.5-0.6v-1.1h5.1v1.1c-1.5,0.1-1.6,0.2-1.9,0.8c-1.5,3-3.6,8.2-4.2,10.8h-1.9
			c-0.6-2.3-2.7-7.8-4.2-11c-0.2-0.4-0.4-0.5-1.7-0.5V108.6z"/>
		<path fill="#FFFFFF" d="M232.7,118.5c-2.1,2-4.3,2.8-6.5,2.8c-3.4,0-6.2-2.3-6.2-6.1c0-4.1,2.8-7.2,6.6-7.2c2.6,0,6,1.8,6,6.2v0.3
			h-9.7v0.3c0,2.7,1.3,4.7,4.2,4.7c1.6,0,2.9-0.4,4.8-1.9L232.7,118.5z M229.9,113.1c0-2-1-4.1-3.3-4.1c-2.2,0-3.7,2-3.7,4.1H229.9z
			"/>
		<path fill="#FFFFFF" d="M233.7,119.8c1.6,0,1.9-0.2,2-0.7c0.1-0.4,0.1-1,0.1-1.5v-7c0-1-0.2-1-0.7-1c-0.4,0-0.9,0.1-1.3,0.2v-1.1
			h0.8c0.8,0,2.2-0.1,2.9-0.3h0.9v1.7c0,0.6,0,0.8,0.1,0.8c0.2,0,0.3-0.4,1.5-1.7c0.6-0.7,1.3-1.2,2-1.2c0.8,0,2.4,0.3,2.4,1.3
			c0,0.6-0.3,2-1.4,2c-0.5,0-0.8-0.2-1-0.8c-0.2-0.6-0.4-0.6-0.8-0.6c-0.6,0-1.9,1.3-2.7,3.3c0,2.1,0.1,5.2,0.1,5.8
			c0.1,0.7,0.2,0.8,2.3,1v1.1h-7.1V119.8z"/>
		<path fill="#FFFFFF" d="M246.5,116.9c0.3,1.7,1.5,3.4,3.5,3.4c1.1,0,2.6-0.5,2.6-2.1c0-0.8-0.5-1.5-1.6-2l-2.4-1.2
			c-2.2-1.1-2.9-2.1-2.9-3.2c0-2.2,2.2-3.9,5.6-3.9c0.8,0,1.8,0.1,2.7,0.3c0.1,1.1,0.3,2.3,0.5,3.4l-1,0.2l-0.4-1
			c-0.6-1.4-1.7-1.8-2.7-1.8c-1.8,0-2.5,1.2-2.5,1.8c0,0.6,0.3,1.2,1.7,1.8l2.6,1.3c1.9,0.9,2.9,1.7,2.9,3.6c0,1.6-1.4,3.7-4.9,3.7
			c-1.9,0-3-0.6-4.4-0.7c0-0.9-0.2-2.4-0.4-3.4L246.5,116.9z"/>
		<path fill="#FFFFFF" d="M256,120.9v-1.1c2.1-0.2,2.2-0.3,2.3-1c0.1-0.9,0.1-3,0.1-6c0-3-0.1-3.2-0.6-3.2c-0.4,0-1.1,0.1-1.8,0.2
			v-1.1c1.6,0,3-0.2,3.8-0.3h1.5c-0.1,1-0.2,3-0.2,5.5c0,2,0,4.1,0.1,5c0.1,0.7,0.2,0.8,2.2,1v1.1H256z M259.8,101.4
			c0.9,0,1.6,0.6,1.6,1.7s-0.6,1.7-1.6,1.7c-1.1,0-1.5-0.8-1.5-1.7C258.2,102.2,258.8,101.4,259.8,101.4z"/>
		<path fill="#FFFFFF" d="M264.5,109c1.7-0.8,3.3-2.4,4-3.6h0.8c-0.1,1-0.1,1.8-0.1,2.7v0.5h4.1v1.1h-4.1c0,2.3-0.2,6.6-0.2,8.4
			c0,1.1,0.4,1.6,1.4,1.6c0.4,0,1.3-0.2,2.8-0.7l-0.3,1.3c-1.1,0.5-2.9,0.9-3.7,0.9c-2,0-3-0.8-3-2.9c0-1.9,0.1-5.8,0.1-8.7h-2V109z
			"/>
		<path fill="#FFFFFF" d="M273.7,108.6h6.5v1.1c-1.3,0.1-1.6,0.2-1.6,0.6c0,0.3,0.2,1,1.2,3.2l2.2,4.5l1.7-5
			c0.2-0.5,0.8-2.2,0.8-2.8c0-0.4-0.4-0.6-1.7-0.6v-1.1h5v1.1c-1.2,0-1.3,0.2-1.6,0.7c-1.2,2.4-3.2,7.9-4.5,11.4
			c-1.3,3.6-2.7,4.2-4.9,4.2c-2.3,0-2.9-1-2.9-1.5c0-0.6,0.8-1.8,1.4-1.8c0.5,0,0.9,0.3,1.2,1c0.3,0.6,0.8,1.1,1.4,1.1
			c1.3,0,2.2-1.9,2.7-3.7l-5.3-10.5c-0.4-0.7-0.5-0.8-1.8-0.9V108.6z"/>
		<path fill="#FFFFFF" d="M295.1,119.8c2.7-0.2,2.9-0.3,3-1c0.1-0.9,0.1-3,0.1-7.2s0-6.2-0.1-7.2c-0.1-0.7-0.2-0.8-3-1v-1.1h9.3v1.1
			c-2.7,0.2-2.9,0.3-3,1c-0.1,0.6-0.1,2.2-0.1,3.4v10.6c0,0.9,0.3,1.1,1.2,1.1h3.3c2.8,0,3.3-0.8,4.9-4.5l1.3,0.4
			c-0.3,0.9-0.8,4.1-0.8,5.4h-16V119.8z"/>
		<path fill="#FFFFFF" d="M312.4,120.9v-1.1c2.1-0.2,2.2-0.3,2.3-1c0.1-0.9,0.1-3,0.1-6c0-3-0.1-3.2-0.6-3.2c-0.4,0-1.1,0.1-1.8,0.2
			v-1.1c1.6,0,3-0.2,3.8-0.3h1.5c-0.1,1-0.2,3-0.2,5.5c0,2,0,4.1,0.1,5c0.1,0.7,0.2,0.8,2.2,1v1.1H312.4z M316.2,101.4
			c0.9,0,1.6,0.6,1.6,1.7s-0.6,1.7-1.6,1.7c-1.1,0-1.5-0.8-1.5-1.7C314.6,102.2,315.2,101.4,316.2,101.4z"/>
		<path fill="#FFFFFF" d="M322.5,110.8c0-4,0-6.3-0.1-6.8c-0.1-0.9-0.2-1.3-0.6-1.3c-0.4,0-1,0.1-1.6,0.2v-1.2h0.8
			c1.5,0,2.8-0.2,3.4-0.4h0.8c-0.1,0.8-0.1,1.7-0.1,2.3v5.1c0,0.4,0,0.6,0.2,0.6c0.4,0,2-1.5,4.4-1.5c3.3,0,5.1,2.7,5.1,6
			c0,3.2-2,7.3-6.4,7.3c-1.6,0-3.7-0.9-4.4-0.9c-0.3,0-0.6,0.1-0.9,0.4l-0.9-0.3c0.1-0.6,0.2-1.4,0.2-2.2V110.8z M325.1,116.3
			c0,1.4,0.6,4,3.1,4c2.4,0,3.7-2.7,3.7-5.8c0-3.6-1.8-5-3.5-5c-1,0-2.2,0.6-3.3,1.6V116.3z"/>
		<path fill="#FFFFFF" d="M336,119.8c1.6,0,1.9-0.2,2-0.7c0.1-0.4,0.1-1,0.1-1.5v-7c0-1-0.2-1-0.7-1c-0.4,0-0.9,0.1-1.3,0.2v-1.1
			h0.8c0.8,0,2.2-0.1,2.9-0.3h0.9v1.7c0,0.6,0,0.8,0.1,0.8c0.2,0,0.3-0.4,1.5-1.7c0.6-0.7,1.3-1.2,2-1.2c0.8,0,2.4,0.3,2.4,1.3
			c0,0.6-0.3,2-1.4,2c-0.5,0-0.8-0.2-1-0.8c-0.2-0.6-0.4-0.6-0.8-0.6c-0.6,0-1.9,1.3-2.7,3.3c0,2.1,0.1,5.2,0.1,5.8
			c0.1,0.7,0.2,0.8,2.3,1v1.1H336V119.8z"/>
		<path fill="#FFFFFF" d="M358.8,117.8c0,1.1,0.4,1.6,1.3,1.6c0.3,0,0.5,0,0.8-0.1l-0.6,1.6c-0.3,0.1-0.6,0.1-1,0.1
			c-1,0-2.2-0.5-2.9-1.5c-1.4,1-3,1.6-4.5,1.6c-2.2,0-3.9-1.5-3.9-3.5c0-2.6,1.8-4,8.2-4.7v-2.2c0-1.4-0.8-1.8-2.4-1.8
			c-1.9,0-2.6,0.8-2.9,2c-0.2,0.6-0.5,0.9-0.9,0.9c-0.6,0-1.7-0.8-1.7-1.4c0-1,2.4-2.6,6.2-2.6c2.7,0,4.3,1,4.3,3.1V117.8z
			 M356.1,114.2c-3.6,0.5-5.2,1.1-5.2,2.9c0,1.4,1.1,2.5,2.6,2.5c1,0,2-0.5,2.7-1.2V114.2z"/>
		<path fill="#FFFFFF" d="M361.6,119.8c1.6,0,1.9-0.2,2-0.7c0.1-0.4,0.1-1,0.1-1.5v-7c0-1-0.2-1-0.7-1c-0.4,0-0.9,0.1-1.3,0.2v-1.1
			h0.8c0.8,0,2.2-0.1,2.9-0.3h0.9v1.7c0,0.6,0,0.8,0.1,0.8c0.2,0,0.3-0.4,1.5-1.7c0.6-0.7,1.3-1.2,2-1.2c0.8,0,2.4,0.3,2.4,1.3
			c0,0.6-0.3,2-1.4,2c-0.5,0-0.8-0.2-1-0.8c-0.2-0.6-0.4-0.6-0.8-0.6c-0.6,0-1.9,1.3-2.7,3.3c0,2.1,0.1,5.2,0.1,5.8
			c0.1,0.7,0.2,0.8,2.3,1v1.1h-7.1V119.8z"/>
		<path fill="#FFFFFF" d="M373,120.9v-1.1c2.1-0.2,2.2-0.3,2.3-1c0.1-0.9,0.1-3,0.1-6c0-3-0.1-3.2-0.6-3.2c-0.4,0-1.1,0.1-1.8,0.2
			v-1.1c1.6,0,3-0.2,3.8-0.3h1.5c-0.1,1-0.2,3-0.2,5.5c0,2,0,4.1,0.1,5c0.1,0.7,0.2,0.8,2.2,1v1.1H373z M376.7,101.4
			c0.9,0,1.6,0.6,1.6,1.7s-0.6,1.7-1.6,1.7c-1.1,0-1.5-0.8-1.5-1.7C375.2,102.2,375.8,101.4,376.7,101.4z"/>
		<path fill="#FFFFFF" d="M394.2,118.5c-2.1,2-4.3,2.8-6.5,2.8c-3.4,0-6.2-2.3-6.2-6.1c0-4.1,2.8-7.2,6.6-7.2c2.6,0,6,1.8,6,6.2v0.3
			h-9.7v0.3c0,2.7,1.3,4.7,4.2,4.7c1.6,0,2.9-0.4,4.8-1.9L394.2,118.5z M391.4,113.1c0-2-1-4.1-3.3-4.1c-2.2,0-3.7,2-3.7,4.1H391.4z
			"/>
		<path fill="#FFFFFF" d="M397,116.9c0.3,1.7,1.5,3.4,3.5,3.4c1.1,0,2.6-0.5,2.6-2.1c0-0.8-0.5-1.5-1.6-2L399,115
			c-2.2-1.1-2.9-2.1-2.9-3.2c0-2.2,2.2-3.9,5.6-3.9c0.8,0,1.8,0.1,2.7,0.3c0.1,1.1,0.3,2.3,0.5,3.4l-1,0.2l-0.4-1
			c-0.6-1.4-1.7-1.8-2.7-1.8c-1.8,0-2.5,1.2-2.5,1.8c0,0.6,0.3,1.2,1.7,1.8l2.6,1.3c1.9,0.9,2.9,1.7,2.9,3.6c0,1.6-1.4,3.7-4.9,3.7
			c-1.9,0-3-0.6-4.4-0.7c0-0.9-0.2-2.4-0.4-3.4L397,116.9z"/>
	</g>
</g>
<g>
	<path fill="#FFFFFF" d="M167.9,17.8c-1.2,0.6-1.5,1.1-1.5,2.7l0,6.5v0.2c0,3.4,0.3,4.4,1.6,5.4c0.8,0.6,1.9,0.9,3.2,0.9
		c2.3,0,3.7-1,4.1-2.7c0.1-0.7,0.2-1.5,0.2-2.5v-0.3l0-5.7v-0.2c0-2.4-0.4-3.3-1.9-4.1h5.3c-1.6,1-2,1.8-2.1,4.6l-0.1,6.8
		c-0.1,3.7-2,5.3-6.3,5.3c-4.9,0-7.6-1.8-7.6-5v-0.3l-0.1-8.6c0-1.7-0.2-2.2-1.2-2.7H167.9z"/>
	<path fill="#FFFFFF" d="M184.7,30.6c0-0.7,0-1.1,0-1.4c0-0.1,0-0.1,0-0.2l0-9.2c-0.5-0.9-1.2-1.5-2.3-2l5.3,0L198.2,30l0-7.4v-0.2
		c0-2.9-0.4-3.9-2-4.5h5c-0.6,0.2-1.2,1-1.4,1.8c-0.2,0.6-0.4,2.1-0.4,3.3l-0.2,3.6c0,0,0,0,0,0.1c0,0.1,0,0.2,0,0.4
		c0,0.2,0,0.3,0,0.4c0,0.2,0,0.2,0,0.2l-0.1,6.5l-1.9,0l-0.1-0.1c-0.3-0.4-2-2.5-5.1-6.2c-2.8-3.4-4.8-5.7-5.8-6.8l-0.3-0.3V28v0.7
		l0.1,1.6c0.1,2.8,0.3,3.2,1.5,3.9l0.2,0.1h-4.8C184.2,33.4,184.6,32.7,184.7,30.6z"/>
	<path fill="#FFFFFF" d="M206.9,31.2V31V20.6v-0.1c0-1.6-0.3-2.2-1.3-2.6h6.2c-1,0.6-1.2,1.3-1.2,3.2v0.1l0,10v0.1
		c0,1.5,0.3,2.3,1.1,2.8h-5.9C206.7,33.5,206.9,33,206.9,31.2z"/>
	<path fill="#FFFFFF" d="M222.9,34.2l-1.1-2.8l-1.1-2.6l-0.1-0.2l-3.5-8.2c-0.6-1.4-1.1-2.2-1.8-2.6l6.7,0c-1,0.6-1.2,0.9-1.2,1.5
		c0,0.2,0.1,0.7,0.3,1.1l0.1,0.1l1.2,3.1c0,0.1,0,0.1,0,0.1c0.1,0.2,0.3,0.6,0.5,1.2c0.1,0.3,0.3,0.8,0.5,1.3c0,0.1,0,0.1,0.1,0.2
		l2.1,4.7l3.5-8c0.6-1.4,1.2-3.2,1.2-3.8c0-0.6-0.4-1.2-1.2-1.7h4.8c-0.9,0.6-1.8,1.7-2.4,3.1l-1.1,2.2l-0.1,0.3l-3,6.5L227,30
		l-0.8,2.1l-0.8,2.1l-0.1,0.2H223L222.9,34.2z"/>
	<path fill="#FFFFFF" d="M237,30.3l0-1.1v-0.7v-7.5V21l0-0.8c-0.1-1.2-0.6-2-1.5-2.3h0.3l5.6,0.1l5.8-0.1l0.2,0l0.3,3.4l-0.1,0
		c-0.9-1.8-2.4-2.7-5.1-2.7h-2l-0.1,6.6h1.7h0c2.3,0,3.5-0.6,3.8-2h0.2V28h-0.1c-0.3-1.4-1.6-2.2-3.5-2.2l-0.2,0h-1.8v4.9V31
		l0.1,1.2c0,0.9,0.5,1.2,1.7,1.2c2.4,0,3.8-0.4,5.2-1.6c0.5-0.4,0.7-0.7,1.1-1.2l0.2,0l-1,3.5h-12.1C236.8,33.6,236.9,33.4,237,30.3
		z"/>
	<path fill="#FFFFFF" d="M253.9,31.4l0-3.2v-0.3v-1.1v-1c0-0.1,0-0.2,0-0.2l-0.1-5.2c0-1.4-0.4-2.2-1.2-2.5h1.5c0,0,0.1,0,0.1,0
		c0.2,0,0.7,0,1.5,0c0.1,0,0.7,0,1.7,0l2.3-0.1c3.5,0,5.2,0.6,6.1,2.2c0.4,0.6,0.6,1.3,0.6,2.1c0,2.2-1.5,3.8-4,4.2l3.2,3.6l0.1,0.1
		c0.1,0.1,0.6,0.6,1.5,1.6c0.7,0.8,1.2,1.3,1.5,1.5c0.2,0.1,0.6,0.5,1.3,1l0.1,0.1c-0.4,0.1-0.5,0.1-1.2,0.1l-1,0
		c-0.1,0-0.2,0-0.3,0c-1.9,0-3.3-0.7-4.6-2.4c0-0.1-0.1-0.1-0.1-0.1l-4.3-4.9h-1.1l0.1,4.7v0.2c0,1.3,0.3,1.8,1.1,2.5l0.2,0.1h-6.4
		C253.4,33.8,253.9,32.9,253.9,31.4z M258.7,26L258.7,26c2.6,0,4.1-1.4,4.1-3.7c0-2.2-1.4-3.7-3.5-3.7c-0.1,0-0.2,0-0.2,0
		c-0.1,0-0.2,0-0.2,0l-1.4,0l0,7.3L258.7,26z"/>
	<path fill="#FFFFFF" d="M271.7,29.2h0.2c1,2.9,3.2,4.6,5.9,4.6c2,0,3.5-1.3,3.5-3c0-1.6-1-2.4-4.2-3.6c-3.1-1.1-4.2-1.9-4.9-3.2
		c-0.2-0.5-0.4-1.1-0.4-1.7c0-2.8,2.4-4.9,5.8-4.9c1.2,0,2.3,0.2,4,0.9c0.5,0.2,0.6,0.2,0.8,0.2c0.4,0,0.6-0.1,1-0.7l0.2,4.1h-0.3
		c-0.7-2-3-3.7-5.2-3.7c-1.7,0-2.8,1.1-2.8,2.6c0,1.6,0.8,2.3,3.8,3.3c2.8,1,4.2,1.9,5,3.2c0.4,0.7,0.6,1.4,0.6,2.2
		c0,3-2.8,5.1-6.6,5.1c-2.3,0-5.4-1-6.4-2.1L271.7,29.2z"/>
	<path fill="#FFFFFF" d="M290.3,31.2V31V20.6v-0.1c0-1.6-0.3-2.2-1.3-2.6h6.2c-1,0.6-1.2,1.3-1.2,3.2v0.1l0,10v0.1
		c0,1.5,0.3,2.3,1.1,2.8h-5.9C290.1,33.5,290.3,33,290.3,31.2z"/>
	<path fill="#FFFFFF" d="M304.6,31v-0.3l0-11.9h-0.3c-1.4,0-2.5,0.3-3.6,1.1c-0.8,0.6-1.1,0.8-1.5,1.6l-0.3-0.1l1.2-3.8
		c0.9,0.3,1.2,0.3,4.3,0.3h2.7c3.7,0,6.5-0.1,7.4-0.2l0.3,0.3l-1.4,3.3l-0.3-0.1c0-0.1,0-0.2,0-0.3c0-1.6-0.9-2.2-2.8-2.2h-0.1
		l-1.9,0l0.1,12.1c0,2.1,0.3,2.8,1.6,3.3h-7C304.2,33.7,304.6,33,304.6,31z"/>
	<path fill="#FFFFFF" d="M322.7,34c1.2-0.7,1.3-1,1.3-2.6v-4l-4.8-7.2c-0.9-1.3-1.5-2-2.1-2.4l7.1,0l-0.2,0.1l-0.4,0.2
		c-0.2,0.1-0.3,0.2-0.5,0.4c-0.1,0.2-0.2,0.4-0.2,0.6c0,0.2,0.3,0.8,0.7,1.5l3.5,5.5l2.1-3.4l0.1-0.1c0.6-1.1,1.1-2.3,1.1-3
		c0-0.7-0.4-1.1-1.3-1.6h5.5c-0.7,0.5-1.3,1.1-2.2,2.1c-0.4,0.6-1.2,1.5-2.2,3c0,0.1-0.1,0.1-0.1,0.2l-2.6,4v3.4v0.2
		c0,2.1,0.3,3,1.3,3.4h-6.5C322.6,34.1,322.7,34,322.7,34z"/>
	<path fill="#FFFFFF" d="M344.9,26c0-5,4.1-8.7,9.7-8.7c5.6,0,9.6,3.5,9.6,8.5c0,5.1-4.1,8.7-9.9,8.7
		C348.9,34.6,344.9,30.9,344.9,26z M360.3,26c0-4.4-2.4-7.7-5.5-7.7c-3.2,0-5.5,3.4-5.5,8c0,4.4,2.2,7.4,5.3,7.4
		C357.8,33.7,360.3,30.3,360.3,26z"/>
	<path fill="#FFFFFF" d="M369.7,31.4c0-0.9,0.1-1.9,0.1-3.2V28l0-5.1v-0.2v-0.4c0-2.9-0.4-4.2-1.5-4.4l11.3-0.1l0.2,3.6h-0.2
		c-0.4-1.8-1.9-2.9-3.9-2.9l-0.3,0l-2.1,0l0,6.7h2c1.9,0,2.5-0.3,3.3-1.9c0-0.1,0-0.1,0.1-0.1h0.2l0,5l-0.2,0
		c-0.4-1.5-1.5-2.3-3.3-2.3h-0.1l-2,0v4.8v0.2c0,2,0.4,3,1.3,3.3h-6.2C369.4,33.8,369.7,33,369.7,31.4z"/>
</g>
<g>
	<path fill="#73000a" d="M437.1,81.5c-6.9,0-11.7-6.8-11.7-16.4c0-9.7,4.7-16.3,11.6-16.3c6.9,0,12.1,7,12.1,16.4
		C449.1,74.7,444.1,81.5,437.1,81.5z M436.5,83.1c11.4,0,19.7-7.7,19.7-18.3c0-10.3-7.9-17.8-18.7-17.9c-11.4,0-20,7.9-20,18.2
		C417.5,75.5,425.7,83.1,436.5,83.1z"/>
	<path fill="#73000a" d="M456.2,82.4h0.6c2.8-0.2,7.3-0.3,12.5-0.3c3.7,0,7,0.1,9.7,0.3h0.2l2-9l-0.4,0l-0.2,0.3
		c-2.6,5.4-5.1,7.1-10.5,7.1c-3.9,0-4.6-0.4-4.6-2.8l0-24.1c0-2.9,1.2-4.9,3.4-5.9h-13.2c2.6,1.1,3.4,2.6,3.5,6.4l0.1,11.6
		c0,0,0,12.2,0,12.4C459.4,80,458.2,81.5,456.2,82.4z"/>
	<path fill="#73000a" d="M481,82.4h11.6c-2.2-1.1-3-2.5-3-5.2l0.1-23.3c0-3.5,0.5-4.6,2.9-6h-11.4c2.1,1.5,2.5,2.2,2.5,4.9v1
		l-0.1,23.4C483.5,80,483,81.1,481,82.4z"/>
	<path fill="#73000a" d="M206.2,46.9c-11.4,0-19.9,7.9-19.9,18.3c0,0.9,0.1,1.9,0.2,2.7c-1.5-2.8-4.9-4.8-11-7l-2.2-0.8
		c-4.3-1.5-6.1-3.4-6.1-6.4c0-3.3,2.7-5.9,6.2-5.9c3.3,0,7,1.9,9.1,4.5c0.9,1.2,1.2,1.7,1.8,3.4l0.8-0.1l-0.6-8.3l-0.6-0.1
		c-0.4,0.7-0.8,0.9-1.7,0.9c-0.5,0-0.8-0.1-1.7-0.5c-2.5-1.1-5.3-1.7-7.9-1.7c-6.9,0-11.8,4-11.8,9.5c0,5.2,3.1,8.2,11.7,11.6
		c1.6,0.6,2.5,1,2.9,1.1c3.8,1.5,6,4.1,6,7.1c0,3.9-3.3,6.8-7.7,6.8c-5.5,0-10.3-3.8-12.5-9.9l-0.8,0.2l0.2,7.3
		c0.6,0.5,0.8,0.6,1.8,1.2c4.2,2.2,6.8,2.9,11.1,2.9c2.5,0,4.7-0.4,6.7-1c4.2-1.6,7.3-5.9,7.3-10.3c0-0.3,0-0.5,0-0.7
		c2.7,6.7,9.4,11.2,17.8,11.2c11.4,0,19.6-7.8,19.6-18.4C224.9,54.3,217,46.9,206.2,46.9z M205.9,81.4c-6.9,0-11.7-6.7-11.8-16.4
		c0-9.7,4.7-16.3,11.6-16.4c6.9,0,12.1,6.9,12.1,16.3C217.9,74.6,212.9,81.4,205.9,81.4z"/>
	<path fill="#73000a" d="M314.4,64.6l0.1-8.5l0.2-4.1c0.1-1.7,1-3,2.8-4.2h-12.2c1.8,1.2,2.4,2.6,2.4,5.9v0.1l-0.1,10.9h-16.2
		l-0.1-7.8v-0.3c0-5.7,0.5-7,3.5-8.7l0.2-0.1l-13.1-0.1l-22.6,0l-9.9,0c2.2,1,3.2,3.1,3.2,7.4l-0.4,16c0,2-0.2,3.2-0.6,4.4
		c-0.9,3.2-4.2,5.1-8.7,5.1c-3.6,0-6.9-1.3-8.2-3.3c-1.1-1.7-1.6-3.7-1.6-7.4l0-15.3l0.1-2.3c0.1-2.6,0.9-3.7,3.3-4.7h-12.8
		c1.9,0.6,2.7,1.8,2.7,4.6l0.1,20.3c0,3.6,1,5.9,3.4,7.5c2.8,2,6.5,2.8,11.6,2.8c9.2,0,13.7-4,13.7-12.2l0.4-12.5
		c0-5.9,2.1-8.8,8.9-8.8l2.4-0.1l0.2,25.8c0,4.3-0.7,6.1-2.7,7.1h13c-2.6-0.9-3.4-2.5-3.5-6.8l-0.2-26.1l4.6,0c6.3,0,6.6,3,6.6,9.1
		l0,9.5v0.3l-0.1,3.6v0.4l-0.2,4.1c-0.1,2.8-0.8,4.5-2.3,5.6l-0.4,0.3h12.3c-1.9-1.1-2.6-2.3-2.6-5l0-10.6h16.2l-0.1,8.7
		c0,3.7-0.8,5.6-3.1,6.9h13.1c-2.1-1-3.1-2.8-3.1-5.7l0.1-10L314.4,64.6z"/>
	<path fill="#73000a" d="M550,82.4h13.7c-1.7-0.6-2.9-1.9-4.5-5.1c0,0-4.7-10.3-5-11.1c-0.7-1.6-0.7-1.5-7.8-19.1
		c-0.7,0.4-3.6,0.7-3.8,0.7c0,0-1.2,2.8-1.9,4.3c-1.1,2.5-5.8,12.7-5.8,12.7l-5.1,11.4c-0.8,1.6-1.5,2.9-2.4,4l-0.1-4.6l0.1-7.3
		l0.2-4.4l0.4-9.2c0.2-3.6,0.8-5.1,3-6.8h-8.3c2,0.9,2.9,3.4,2.9,8.2l0.1,3.6L525,73.2l-21-25.4l-10.1,0c1.9,1.1,3.2,2,4.3,3.2
		l-0.1,24.2c0,4.2-0.8,5.7-3.6,7.2H505c-3.2-1-4.3-2.7-4.3-6.7l0-22l23.7,28.6h0.6h2.5h7.8c-1.8-0.7-2.9-2.1-2.9-3.6
		c0-1.2,0.5-4.6,1.3-6.3l2.6-5.6h11.6l4.4,11c0,0,0.1,0,0.1,0.3c0.3,0.6,0.5,1.4,0.5,1.7C552.8,80.9,551.8,81.8,550,82.4z
		 M537.2,64.7l4.9-11.5l4.7,11.5H537.2z"/>
	<path fill="#73000a" d="M421.6,81.4c-1.4-1.1-2.4-2.3-4-4c-0.9-1-3.1-3.4-4.2-4.6c-0.1-0.1-0.2-0.1-0.2-0.3l-5.7-7
		c5.3-1.3,8.1-4.4,8.1-8.9c0-3.1-1.6-5.9-4.3-7.4c-1.9-1-4.8-1.6-8.4-1.6c-0.3,0-1.1,0-1.1,0l-7.4,0.2l-1.6,0.1l-5.6-0.1
		c2.3,1.2,3,2.5,3,5.5l0,23.4l0,0.5c0,1.3-0.3,2.4-0.9,3.3c-0.6-0.8-1.2-1.8-1.8-3.2c0,0-4.7-10.3-5-11.1c-0.7-1.6-0.7-1.5-7.8-19.1
		c-0.7,0.4-3.6,0.7-3.8,0.7c0,0-1.2,2.8-1.9,4.3c-1.1,2.5-3.5,7.9-3.5,7.9l-2.3,4.8l-4.3,9.7c-0.6,1.2-1.1,1.8-2.2,3.1
		c-2.9,3.1-5.9,4.6-9.5,4.6c-8.2,0-13.6-7.2-13.6-18c0-10.2,5-17.1,12.3-17.1c4.6,0,8.6,2.9,12.9,9.2l0.1,0.2l0.7-0.1l-0.8-8.5
		c-0.6,0.2-0.9,0.3-1.2,0.3c-0.2,0-0.3,0-0.4-0.1c-3.2-1.7-7.7-2.8-11.4-2.8c-11.7,0-20,8.1-20,19.4c0,11.2,8.2,19.2,19.6,19.2
		c2.9,0,5.6-0.5,8.4-1.5h9.7c-1.8-0.7-2.9-2.1-2.9-3.6c0-1.2,0.5-4.6,1.3-6.3l2.6-5.6h11.6c0,0,4.4,11,4.5,11.2
		c0.2,0.6,0.5,1.4,0.5,1.7c0,1.1-1,2-2.8,2.6h8.5h5.2h9.1c-3.2-0.9-4.2-2.3-4.2-6.1l-0.1-9.7l1.6-0.1c1.5,0,1.9,0.2,2.9,1.4l1.7,2
		c0,0,6.2,7.6,6.3,7.9c1.7,1.9,2.8,3.1,3.2,3.4c1.7,1.6,4.7,3.5,10,3.6c2.8,0.1,3.8-0.2,5.7-1C425.3,83.5,423.4,82.8,421.6,81.4z
		 M365.5,64.7l4.9-11.5l4.7,11.5H365.5z M400.4,65.1c-0.3,0-3.6-0.1-3.6-0.1l-0.1-15.4l3.2-0.1c2.1,0.1,3.8,0.4,5.1,0.9
		c2.3,0.9,3.9,3.8,3.9,7.1C409,62.4,405.9,65.1,400.4,65.1z"/>
</g>
</svg>
