<svg id="Layer_1" data-name="Layer 1" xmlns="http://www.w3.org/2000/svg" viewBox="0 0 75.86 24.09"><defs><style>.cls-1{fill:#fff;}</style></defs><title>NASCA_type</title><path class="cls-1" d="M183,85.66a.25.25,0,0,1,0,.14.16.16,0,0,1-.14.06.16.16,0,0,1-.14-.06.24.24,0,0,1,0-.14V80.11c0-.12,0-.18.17-.18a.3.3,0,0,1,.26.15l3.9,5.15v-5.1a.24.24,0,0,1,0-.14.2.2,0,0,1,.29,0,.24.24,0,0,1,0,.14v5.55c0,.12,0,.18-.17.18a.31.31,0,0,1-.26-.15L183,80.57Z" transform="translate(-181.97 -79.85)"/><path class="cls-1" d="M192.32,83.47h-2.23l-.86,2.23c0,.11-.09.17-.21.17s-.15,0-.15-.12a.39.39,0,0,1,0-.14L191,80.1a.21.21,0,0,1,.41,0l2.05,5.52a.45.45,0,0,1,0,.14c0,.06,0,.12-.17.12s-.17,0-.22-.17Zm-2.12-.31h2l-1-2.65Z" transform="translate(-181.97 -79.85)"/><path class="cls-1" d="M196.3,85.66a.24.24,0,0,1,0,.14.17.17,0,0,1-.15.06.18.18,0,0,1-.15-.06.24.24,0,0,1,0-.14V80.31H194a.29.29,0,0,1-.15,0,.14.14,0,0,1-.06-.13.14.14,0,0,1,.06-.14.29.29,0,0,1,.15,0h4.2a.29.29,0,0,1,.15,0,.14.14,0,0,1,.06.13.14.14,0,0,1-.06.14.29.29,0,0,1-.15,0H196.3Z" transform="translate(-181.97 -79.85)"/><path class="cls-1" d="M200.18,85.66a.24.24,0,0,1,0,.14.22.22,0,0,1-.31,0,.24.24,0,0,1,0-.14V80.14a.24.24,0,0,1,0-.14.22.22,0,0,1,.31,0,.24.24,0,0,1,0,.14Z" transform="translate(-181.97 -79.85)"/><path class="cls-1" d="M206,80.1c0-.11.09-.17.21-.17s.15.05.15.13a.32.32,0,0,1,0,.11l-2.13,5.54a.21.21,0,0,1-.41,0l-2.06-5.54a.39.39,0,0,1,0-.12c0-.07.06-.12.16-.12a.23.23,0,0,1,.22.17l1.93,5.19Z" transform="translate(-181.97 -79.85)"/><path class="cls-1" d="M208.34,82.48h1.73a.29.29,0,0,1,.15,0,.14.14,0,0,1,.06.13.14.14,0,0,1-.06.14.29.29,0,0,1-.15,0h-1.73V85.5h2.36a.29.29,0,0,1,.15,0,.14.14,0,0,1,.06.13.14.14,0,0,1-.06.14.29.29,0,0,1-.15,0h-2.54c-.13,0-.18-.06-.18-.18V80.17c0-.12,0-.18.18-.18h2.23a.29.29,0,0,1,.15,0,.14.14,0,0,1,.06.13.14.14,0,0,1-.06.14.29.29,0,0,1-.15,0h-2.05Z" transform="translate(-181.97 -79.85)"/><path class="cls-1" d="M218.13,83.47h-2.23L215,85.7c0,.11-.09.17-.21.17s-.15,0-.15-.12a.39.39,0,0,1,0-.14l2.13-5.52a.21.21,0,0,1,.41,0l2.05,5.52a.45.45,0,0,1,0,.14c0,.06,0,.12-.17.12s-.17,0-.22-.17ZM216,83.16h2l-1-2.65Z" transform="translate(-181.97 -79.85)"/><path class="cls-1" d="M226,80.1a.25.25,0,0,1,.24-.17c.17,0,.17.12.19.27l.57,5.31c0,.08,0,.15,0,.21s0,.15-.17.15-.17-.05-.18-.17l-.55-5.1L224,85.26c0,.1-.1.19-.22.19s-.15,0-.22-.19l-2.1-4.65-.58,5.1c0,.12-.06.17-.18.17a.15.15,0,0,1-.17-.16s0-.11,0-.18l.64-5.36c0-.13,0-.24.2-.24a.23.23,0,0,1,.22.17l2.18,4.83Z" transform="translate(-181.97 -79.85)"/><path class="cls-1" d="M229.38,82.48h1.73a.3.3,0,0,1,.15,0,.14.14,0,0,1,.06.13.14.14,0,0,1-.06.14.3.3,0,0,1-.15,0h-1.73V85.5h2.36a.29.29,0,0,1,.15,0,.14.14,0,0,1,.06.13.14.14,0,0,1-.06.14.29.29,0,0,1-.15,0H229.2c-.14,0-.18-.06-.18-.18V80.17c0-.12,0-.18.18-.18h2.23a.29.29,0,0,1,.15,0,.14.14,0,0,1,.06.13.14.14,0,0,1-.06.14.29.29,0,0,1-.15,0h-2.05Z" transform="translate(-181.97 -79.85)"/><path class="cls-1" d="M234.06,85.66a.24.24,0,0,1,0,.14.22.22,0,0,1-.31,0,.24.24,0,0,1,0-.14V80.3c0-.19,0-.28.31-.32a5.23,5.23,0,0,1,.7,0,2.89,2.89,0,0,1,1.34.27,1.33,1.33,0,0,1,.75,1.28,1.57,1.57,0,0,1-1.31,1.58l1.85,2.57c.09.13.08.24-.12.24a.31.31,0,0,1-.29-.18l-1.29-1.8c-.27-.38-.51-.76-.51-.76a4.92,4.92,0,0,1-.68,0,3,3,0,0,1-.38,0Zm0-2.81a3.83,3.83,0,0,0,.41,0c1.34,0,1.94-.53,1.94-1.35,0-1-.85-1.29-1.72-1.29a4.37,4.37,0,0,0-.62,0Z" transform="translate(-181.97 -79.85)"/><path class="cls-1" d="M239.29,85.66a.24.24,0,0,1,0,.14.22.22,0,0,1-.31,0,.24.24,0,0,1,0-.14V80.14a.24.24,0,0,1,0-.14.22.22,0,0,1,.31,0,.24.24,0,0,1,0,.14Z" transform="translate(-181.97 -79.85)"/><path class="cls-1" d="M244,85.61a2.74,2.74,0,0,0,1.07-.22c.4-.17.57-.37.68-.37a.16.16,0,0,1,.14.16c0,.09-.08.17-.25.28a3,3,0,0,1-1.64.47,2.85,2.85,0,0,1-3-3.09,2.76,2.76,0,0,1,2.9-3,3.14,3.14,0,0,1,1.63.43c.21.13.32.23.32.31a.19.19,0,0,1-.16.17c-.11,0-.26-.19-.67-.36a2.94,2.94,0,0,0-1.16-.23,2.38,2.38,0,0,0-2.48,2.65A2.53,2.53,0,0,0,244,85.61Z" transform="translate(-181.97 -79.85)"/><path class="cls-1" d="M250.4,83.47h-2.23l-.86,2.23c0,.11-.09.17-.21.17s-.15,0-.15-.12a.39.39,0,0,1,0-.14l2.13-5.52a.21.21,0,0,1,.41,0l2.05,5.52a.45.45,0,0,1,0,.14c0,.06,0,.12-.17.12s-.17,0-.22-.17Zm-2.12-.31h2l-1-2.65Z" transform="translate(-181.97 -79.85)"/><path class="cls-1" d="M253.5,85.66a.25.25,0,0,1,0,.14.16.16,0,0,1-.14.06.16.16,0,0,1-.14-.06.24.24,0,0,1,0-.14V80.11c0-.12,0-.18.17-.18a.3.3,0,0,1,.26.15l3.9,5.15v-5.1a.24.24,0,0,1,0-.14.2.2,0,0,1,.29,0,.24.24,0,0,1,0,.14v5.55c0,.12,0,.18-.17.18a.31.31,0,0,1-.26-.15l-3.9-5.15Z" transform="translate(-181.97 -79.85)"/><path class="cls-1" d="M184.3,91.77a1.82,1.82,0,0,1,1.05,1.59,1.59,1.59,0,0,1-1.75,1.56,2.16,2.16,0,0,1-1.17-.33c-.2-.13-.34-.28-.34-.38a.18.18,0,0,1,.17-.17c.21,0,.48.56,1.33.56a1.26,1.26,0,0,0,1.4-1.22,1.49,1.49,0,0,0-.83-1.27c-.67-.41-1.89-.8-1.89-1.89a1.42,1.42,0,0,1,1.59-1.35c.76,0,1.35.36,1.35.55a.16.16,0,0,1-.15.16c-.19,0-.47-.39-1.18-.39s-1.25.41-1.25,1C182.64,91.05,183.67,91.41,184.3,91.77Z" transform="translate(-181.97 -79.85)"/><path class="cls-1" d="M189.54,88.83a3.06,3.06,0,1,1-3,3.07A2.8,2.8,0,0,1,189.54,88.83Zm0,5.8a2.44,2.44,0,0,0,2.54-2.73,2.56,2.56,0,1,0-2.54,2.73Z" transform="translate(-181.97 -79.85)"/><path class="cls-1" d="M198.17,94a2.44,2.44,0,0,0,.41-1.62V89.14a.24.24,0,0,1,0-.14.22.22,0,0,1,.31,0,.25.25,0,0,1,0,.14v3.25a2.66,2.66,0,0,1-.55,1.89,2.39,2.39,0,0,1-1.83.67,2.32,2.32,0,0,1-1.81-.68,2.48,2.48,0,0,1-.55-1.89V89.14a.24.24,0,0,1,0-.14.22.22,0,0,1,.31,0,.24.24,0,0,1,0,.14v3.24A2.44,2.44,0,0,0,195,94a2.35,2.35,0,0,0,3.19,0Z" transform="translate(-181.97 -79.85)"/><path class="cls-1" d="M202.83,94.66a.25.25,0,0,1,0,.14.22.22,0,0,1-.31,0,.24.24,0,0,1,0-.14V89.31h-1.92a.29.29,0,0,1-.15,0,.14.14,0,0,1-.06-.13.14.14,0,0,1,.06-.14.29.29,0,0,1,.15,0h4.2a.29.29,0,0,1,.15,0,.14.14,0,0,1,.06.13.14.14,0,0,1-.06.14.29.29,0,0,1-.15,0h-1.92Z" transform="translate(-181.97 -79.85)"/><path class="cls-1" d="M210.8,94.66a.25.25,0,0,1,0,.14.22.22,0,0,1-.31,0,.25.25,0,0,1,0-.14V91.81H206.7v2.85a.24.24,0,0,1,0,.14.22.22,0,0,1-.31,0,.24.24,0,0,1,0-.14V89.14a.24.24,0,0,1,0-.14.22.22,0,0,1,.31,0,.24.24,0,0,1,0,.14V91.5h3.74V89.14a.25.25,0,0,1,0-.14.22.22,0,0,1,.31,0,.25.25,0,0,1,0,.14Z" transform="translate(-181.97 -79.85)"/><path class="cls-1" d="M218.2,94.61a2.73,2.73,0,0,0,1.07-.22c.4-.17.57-.37.68-.37a.16.16,0,0,1,.14.16c0,.09-.08.17-.25.28a3,3,0,0,1-1.64.47,2.85,2.85,0,0,1-3-3.09,2.76,2.76,0,0,1,2.9-3,3.14,3.14,0,0,1,1.63.43c.21.13.32.23.32.31a.19.19,0,0,1-.16.17c-.11,0-.26-.19-.67-.36a2.94,2.94,0,0,0-1.16-.23,2.38,2.38,0,0,0-2.48,2.65A2.53,2.53,0,0,0,218.2,94.61Z" transform="translate(-181.97 -79.85)"/><path class="cls-1" d="M224.65,92.47h-2.23l-.86,2.23c0,.11-.09.17-.21.17s-.15,0-.15-.12a.38.38,0,0,1,0-.13l2.13-5.52a.21.21,0,0,1,.41,0l2.05,5.52a.44.44,0,0,1,0,.13c0,.06,0,.12-.17.12s-.17,0-.22-.17Zm-2.12-.31h2l-1-2.65Z" transform="translate(-181.97 -79.85)"/><path class="cls-1" d="M227.82,94.66a.24.24,0,0,1,0,.14.22.22,0,0,1-.31,0,.24.24,0,0,1,0-.14V89.3c0-.19,0-.28.31-.32a5.23,5.23,0,0,1,.7,0,2.89,2.89,0,0,1,1.34.27,1.33,1.33,0,0,1,.75,1.28,1.57,1.57,0,0,1-1.31,1.58l1.85,2.57c.09.13.08.24-.12.24a.31.31,0,0,1-.29-.18l-1.29-1.8c-.27-.38-.51-.76-.51-.76a4.92,4.92,0,0,1-.68,0,2.91,2.91,0,0,1-.38,0Zm0-2.81a3.94,3.94,0,0,0,.41,0c1.34,0,1.94-.53,1.94-1.35,0-1-.85-1.29-1.72-1.29a4.37,4.37,0,0,0-.62,0Z" transform="translate(-181.97 -79.85)"/><path class="cls-1" d="M235.13,88.83a3.06,3.06,0,1,1-3,3.07A2.8,2.8,0,0,1,235.13,88.83Zm0,5.8a2.44,2.44,0,0,0,2.54-2.73,2.56,2.56,0,1,0-2.54,2.73Z" transform="translate(-181.97 -79.85)"/><path class="cls-1" d="M242.43,94.5a.29.29,0,0,1,.15,0,.13.13,0,0,1,.06.13.14.14,0,0,1-.06.13.29.29,0,0,1-.15,0H240c-.13,0-.18-.06-.18-.18v-5.5a.24.24,0,0,1,0-.14.22.22,0,0,1,.31,0,.24.24,0,0,1,0,.14V94.5Z" transform="translate(-181.97 -79.85)"/><path class="cls-1" d="M244.56,94.66a.24.24,0,0,1,0,.14.22.22,0,0,1-.31,0,.24.24,0,0,1,0-.14V89.14a.24.24,0,0,1,0-.14.22.22,0,0,1,.31,0,.24.24,0,0,1,0,.14Z" transform="translate(-181.97 -79.85)"/><path class="cls-1" d="M247.18,94.66a.25.25,0,0,1,0,.14.16.16,0,0,1-.14.06.16.16,0,0,1-.14-.06.24.24,0,0,1,0-.14V89.11c0-.12,0-.18.17-.18a.3.3,0,0,1,.26.15l3.9,5.15v-5.1a.24.24,0,0,1,0-.14.2.2,0,0,1,.29,0,.24.24,0,0,1,0,.14v5.55c0,.12,0,.18-.17.18a.3.3,0,0,1-.26-.15l-3.9-5.15Z" transform="translate(-181.97 -79.85)"/><path class="cls-1" d="M256.55,92.47h-2.23l-.86,2.23c0,.11-.09.17-.21.17s-.15,0-.15-.12a.39.39,0,0,1,0-.13l2.13-5.52a.21.21,0,0,1,.41,0l2.05,5.52a.44.44,0,0,1,0,.13c0,.06,0,.12-.17.12s-.17,0-.22-.17Zm-2.12-.31h2l-1-2.65Z" transform="translate(-181.97 -79.85)"/><path class="cls-1" d="M185.42,101.47h-2.23l-.86,2.23c0,.11-.09.17-.21.17s-.15,0-.15-.12a.38.38,0,0,1,0-.13l2.13-5.52a.21.21,0,0,1,.41,0l2.05,5.52a.45.45,0,0,1,0,.13c0,.06,0,.12-.17.12s-.17,0-.22-.17Zm-2.12-.31h2l-1-2.65Z" transform="translate(-181.97 -79.85)"/><path class="cls-1" d="M188.54,103.66a.24.24,0,0,1,0,.14.22.22,0,0,1-.31,0,.24.24,0,0,1,0-.14V98.3c0-.19,0-.28.31-.32a5.31,5.31,0,0,1,.7,0,2.89,2.89,0,0,1,1.34.27,1.33,1.33,0,0,1,.75,1.28,1.57,1.57,0,0,1-1.31,1.58l1.85,2.57c.09.13.08.24-.12.24a.31.31,0,0,1-.29-.18l-1.29-1.8c-.27-.38-.51-.76-.51-.76a4.92,4.92,0,0,1-.68,0,3.06,3.06,0,0,1-.38,0Zm0-2.81a3.73,3.73,0,0,0,.41,0c1.34,0,1.94-.53,1.94-1.35,0-1-.85-1.29-1.72-1.29a4.37,4.37,0,0,0-.62,0Z" transform="translate(-181.97 -79.85)"/><path class="cls-1" d="M195.81,103.61a2.75,2.75,0,0,0,1.07-.22c.4-.17.57-.37.68-.37a.16.16,0,0,1,.14.16c0,.09-.08.17-.25.28a3,3,0,0,1-1.64.47,2.85,2.85,0,0,1-3-3.09,2.76,2.76,0,0,1,2.9-3,3.14,3.14,0,0,1,1.63.43c.21.13.32.22.32.31a.19.19,0,0,1-.16.17c-.11,0-.26-.19-.67-.36a2.93,2.93,0,0,0-1.16-.23,2.38,2.38,0,0,0-2.48,2.65A2.53,2.53,0,0,0,195.81,103.61Z" transform="translate(-181.97 -79.85)"/><path class="cls-1" d="M203.91,103.66a.25.25,0,0,1,0,.14.22.22,0,0,1-.31,0,.25.25,0,0,1,0-.14v-2.85h-3.74v2.85a.24.24,0,0,1,0,.14.22.22,0,0,1-.31,0,.24.24,0,0,1,0-.14V98.14a.24.24,0,0,1,0-.14.22.22,0,0,1,.31,0,.24.24,0,0,1,0,.14v2.36h3.74V98.14a.25.25,0,0,1,0-.14.22.22,0,0,1,.31,0,.25.25,0,0,1,0,.14Z" transform="translate(-181.97 -79.85)"/><path class="cls-1" d="M206.5,103.66a.24.24,0,0,1,0,.14.22.22,0,0,1-.31,0,.24.24,0,0,1,0-.14V98.14a.24.24,0,0,1,0-.14.22.22,0,0,1,.31,0,.24.24,0,0,1,0,.14Z" transform="translate(-181.97 -79.85)"/><path class="cls-1" d="M212.37,98.1c0-.11.09-.17.21-.17s.15.05.15.13a.32.32,0,0,1,0,.11l-2.13,5.54a.21.21,0,0,1-.41,0l-2.06-5.54a.39.39,0,0,1,0-.12c0-.07.06-.12.16-.12a.23.23,0,0,1,.22.17l1.93,5.19Z" transform="translate(-181.97 -79.85)"/><path class="cls-1" d="M214.66,100.48h1.73a.29.29,0,0,1,.15,0,.13.13,0,0,1,.06.13.14.14,0,0,1-.06.13.29.29,0,0,1-.15,0h-1.73v2.71H217a.29.29,0,0,1,.15,0,.14.14,0,0,1,.06.13.14.14,0,0,1-.06.13.29.29,0,0,1-.15,0h-2.54c-.14,0-.18-.06-.18-.18V98.17c0-.12,0-.18.18-.18h2.23a.29.29,0,0,1,.15,0,.14.14,0,0,1,.06.13.14.14,0,0,1-.06.14.29.29,0,0,1-.15,0h-2.05Z" transform="translate(-181.97 -79.85)"/></svg>