<svg id="Layer_1" data-name="Layer 1" xmlns="http://www.w3.org/2000/svg" viewBox="0 0 241.23 470.38"><defs><style>.cls-1,.cls-19,.cls-20{fill:none;}.cls-2{font-size:18px;font-family:SourceSerifPro-Regular, Source Serif Pro;}.cls-16,.cls-18,.cls-2{fill:#fff;}.cls-3{letter-spacing:0.01em;}.cls-4{letter-spacing:-0.09em;}.cls-5{letter-spacing:0em;}.cls-6{letter-spacing:-0.01em;}.cls-7{letter-spacing:0em;}.cls-8{letter-spacing:-0.04em;}.cls-9{letter-spacing:-0.03em;}.cls-10{letter-spacing:0em;}.cls-11{letter-spacing:-0.02em;}.cls-12{letter-spacing:-0.01em;}.cls-13{letter-spacing:0em;}.cls-14{letter-spacing:-0.07em;}.cls-15{letter-spacing:-0.01em;}.cls-16,.cls-19,.cls-20{stroke:#323a3b;stroke-miterlimit:10;}.cls-16{stroke-width:10px;}.cls-17{fill:#323a3b;}.cls-19{stroke-width:4px;}.cls-20{stroke-width:1.88px;}</style></defs><title>Untitled-2</title><rect class="cls-1" x="0.61" y="42.08" width="239" height="427.75"/><rect y="42.08" width="241.23" height="428.3"/><text class="cls-2" transform="translate(22.68 350.45)">Sor<tspan class="cls-3" x="26.71" y="0">r</tspan><tspan class="cls-4" x="34.52" y="0">y</tspan><tspan class="cls-5" x="42.01" y="0">, the Im</tspan><tspan class="cls-6" x="104.58" y="0">ag</tspan><tspan x="122.72" y="0">e c</tspan><tspan class="cls-7" x="144.88" y="0">a</tspan><tspan class="cls-8" x="153.97" y="0">n</tspan><tspan class="cls-9" x="164.14" y="0">’</tspan><tspan class="cls-10" x="167.43" y="0">t be</tspan><tspan class="cls-11" x="0" y="21.6">f</tspan><tspan class="cls-12" x="6.1" y="21.6">o</tspan><tspan x="15.82" y="21.6">u</tspan><tspan class="cls-13" x="26.33" y="21.6">n</tspan><tspan x="37.17" y="21.6">t in the </tspan><tspan class="cls-6" x="97.79" y="21.6">d</tspan><tspan x="107.82" y="21.6">atabas</tspan><tspan class="cls-9" x="159.44" y="21.6">e</tspan><tspan x="168.1" y="21.6" xml:space="preserve">.  </tspan><tspan class="cls-14" x="0" y="43.2">W</tspan><tspan class="cls-5" x="16.06" y="43.2">e will dig </tspan><tspan class="cls-15" x="92.55" y="43.2">f</tspan><tspan x="98.66" y="43.2">or it.</tspan></text><rect class="cls-16" x="26.95" y="72.1" width="188.37" height="188.38"/><circle class="cls-17" cx="88.61" cy="142.18" r="23.68"/><polygon class="cls-17" points="215.7 260.48 104.36 260.48 116.38 238.66 120.7 230.82 134.03 206.65 137.89 199.63 160.03 159.46 181.95 199.22 185.81 206.24 199.59 231.25 203.46 238.25 215.7 260.48"/><polygon class="cls-17" points="160.03 159.45 154.33 147.19 151.58 148.51 160.03 164.19 160.03 159.45"/><polygon class="cls-17" points="159.59 159.45 165.29 147.19 168.04 148.51 159.59 164.19 159.59 159.45"/><polygon class="cls-18" points="185.81 206.24 179.48 210.06 169.53 204.06 159.59 210.06 149.63 204.06 139.68 210.06 134.03 206.65 137.89 199.63 139.68 200.72 149.63 194.72 159.59 200.72 169.53 194.72 179.48 200.72 181.95 199.22 185.81 206.24"/><polygon class="cls-18" points="203.46 238.25 199.38 240.72 189.43 234.72 179.48 240.72 169.53 234.72 159.59 240.72 149.63 234.72 139.68 240.72 129.74 234.72 119.79 240.72 116.38 238.66 120.7 230.82 129.74 225.38 139.68 231.38 149.63 225.38 159.59 231.38 169.53 225.38 179.48 231.38 189.42 225.38 199.38 231.38 199.59 231.25 203.46 238.25"/><polygon points="159.59 177.85 153.08 260.48 168.04 260.48 159.59 177.85"/><circle class="cls-17" cx="121.24" cy="12.26" r="12.26"/><line class="cls-19" x1="114.37" y1="12.26" x2="67.52" y2="72.1"/><line class="cls-19" x1="127.57" y1="12.26" x2="174.42" y2="72.1"/><line class="cls-20" x1="116.38" y1="142.18" x2="133.51" y2="142.18"/><line class="cls-20" x1="114.7" y1="132.68" x2="130.8" y2="126.83"/><line class="cls-20" x1="109.88" y1="124.33" x2="123" y2="113.32"/><line class="cls-20" x1="102.49" y1="118.13" x2="111.06" y2="103.3"/><line class="cls-20" x1="93.43" y1="114.83" x2="96.4" y2="97.97"/><line class="cls-20" x1="83.78" y1="114.83" x2="80.81" y2="97.97"/><line class="cls-20" x1="74.72" y1="118.13" x2="66.16" y2="103.3"/><line class="cls-20" x1="67.33" y1="124.33" x2="54.21" y2="113.32"/><line class="cls-20" x1="62.51" y1="132.68" x2="46.42" y2="126.83"/><line class="cls-20" x1="60.83" y1="142.18" x2="43.71" y2="142.18"/><line class="cls-20" x1="62.51" y1="151.68" x2="46.42" y2="157.54"/><line class="cls-20" x1="67.33" y1="160.03" x2="54.21" y2="171.04"/><line class="cls-20" x1="74.72" y1="166.23" x2="66.16" y2="181.07"/><line class="cls-20" x1="83.78" y1="169.53" x2="80.81" y2="186.4"/><line class="cls-20" x1="93.43" y1="169.53" x2="96.4" y2="186.4"/><line class="cls-20" x1="102.49" y1="166.23" x2="111.06" y2="181.07"/><line class="cls-20" x1="109.88" y1="160.03" x2="123" y2="171.04"/><line class="cls-20" x1="114.7" y1="151.68" x2="130.8" y2="157.54"/></svg>