<svg id="Layer_1" data-name="Layer 1" xmlns="http://www.w3.org/2000/svg" viewBox="0 0 114.39 28.33"><defs><style>.cls-1{fill:#a80505;}</style></defs><title>NASCA_single_logo</title><path class="cls-1" d="M181.88,100.06c-.7,0-1.19-1.24-1.36-2.22-.64-3.89-3.33-8.5-5.62-11.5a27,27,0,0,0-8.3-7.14h0c1.28,1.08,7.67,6.56,9.86,10.79l.4.76a12.33,12.33,0,0,0-1.9-1.21l-.09,0-.09,0a2.65,2.65,0,0,1-1.16.24,5.93,5.93,0,0,1-2.3-.57c.51-.15,1.16-.45,1.19-1V88l-1.21.14a8,8,0,0,1-1.14.08h0c-4,0-7-3.24-8.28-4.8a1.88,1.88,0,0,0,1.78-1.68l0-.29-.29,0a10.76,10.76,0,0,1-1.39.08,7.2,7.2,0,0,1-4.64-1.36,16.17,16.17,0,0,1-4.63-8c.79,0,1.79-.09,2.87-.09a27.78,27.78,0,0,1,7.66,1,17.44,17.44,0,0,1,10.61,8.25l.21.43.19-.44a3.84,3.84,0,0,0,.29-1.32l0,0a9.17,9.17,0,0,1,2,2.48s1.38,2.17,2,7h0a4.17,4.17,0,0,0,.48-.87,9.08,9.08,0,0,1,1.63,5.2c0,1.64.25,4.45,1.15,5Z" transform="translate(-152.74 -72.12)"/><path class="cls-1" d="M185.89,76.09q0,.27-.21.27c-2.7.15-3.13,1.14-3.13,5.73V99.56c0,.25,0,.49-.37.49h-.3v-18c0-4.59-.39-5.58-3.71-5.73-.11,0-.18-.09-.18-.27s.07-.3.18-.3h7.51C185.82,75.79,185.89,75.81,185.89,76.09Z" transform="translate(-152.74 -72.12)"/><path class="cls-1" d="M170.92,99.47c-3.66-.13-4.08-1.13-4.08-5.72V88.54a2.75,2.75,0,0,1-.65-.21v5.42c0,4.59-.45,5.59-3.13,5.72-.13,0-.21.1-.21.3s.08.29.21.29h7.86c.11,0,.18,0,.18-.29S171,99.47,170.92,99.47Z" transform="translate(-152.74 -72.12)"/><path class="cls-1" d="M204.87,100.06l-8.49-24.23c-.07-.2-.13-.27-.33-.27h-.86a.39.39,0,0,0-.36.27l-5.88,17.5c-1.75,5.22-2.44,6-4.29,6.14-.2,0-.27.1-.27.3s.07.3.2.3h6.77c.13,0,.2,0,.2-.22s-.07-.18-.2-.18a8.84,8.84,0,0,1-1-.09,3,3,0,0,1-.57-.13c-1.64-.48-1.55-2.12-.25-6l.66-2,.16-.6,3.53-10.43H194c.26,1.12.66,2.34,1,3.43l2.44,7,2.78,8,.41,1.16Z" transform="translate(-152.74 -72.12)"/><path class="cls-1" d="M267.13,100.06l-8.49-24.23c-.07-.2-.13-.27-.33-.27h-.86a.39.39,0,0,0-.36.27l-5.88,17.5c-1.75,5.22-2.44,6-4.29,6.14-.2,0-.27.1-.27.3s.07.3.2.3h6.77c.13,0,.2,0,.2-.22s-.07-.18-.2-.18a8.84,8.84,0,0,1-1-.09,3,3,0,0,1-.57-.13c-1.64-.48-1.55-2.12-.25-6l.66-2,.16-.6,3.53-10.43h.14c.26,1.12.66,2.34,1,3.43l2.44,7,2.78,8,.41,1.16Z" transform="translate(-152.74 -72.12)"/><path class="cls-1" d="M216.16,85.53c-4.59-2.21-5.55-3.57-5.55-5.88,0-2,1.58-3.57,4.06-3.57,3.7,0,5.68,2.71,6.17,6.94,0,.13.13.2.3.2s.3-.1.3-.2V76c0-.26-.07-.36-.23-.36a.46.46,0,0,0-.36.2,1.25,1.25,0,0,1-1.12.59c-1.78,0-2.64-1-5-1a6.24,6.24,0,0,0-6.44,6.11c0,3.17,1.45,5.32,6,7.5,4.89,2.34,6.21,3.83,6.21,6.37s-2,4.39-5.35,4.39c-4.06,0-6.41-3-7.13-8.32,0-.1-.07-.2-.3-.2s-.3.1-.3.2V99.7c0,.26.07.36.23.36a.46.46,0,0,0,.36-.26,1.82,1.82,0,0,1,1.65-.76c1.58,0,2.28,1.42,5.55,1.42,4.66,0,7.69-3.17,7.69-7.17C222.86,89.82,220.88,87.81,216.16,85.53Z" transform="translate(-152.74 -72.12)"/><path class="cls-1" d="M243.92,91.34a.27.27,0,0,0-.3.2c-.76,5.22-3.53,8.32-7.5,8.32a5.58,5.58,0,0,1-4-1.62c-1.42-1.42-2.15-3.43-2.15-10.27s.73-8.85,2.15-10.27a5.58,5.58,0,0,1,4-1.62c4.46,0,6.37,2.32,7.13,7.2a.27.27,0,0,0,.3.2c.17,0,.3-.1.3-.2V76.15c0-.26-.07-.36-.23-.36s-.26.07-.43.33a1.47,1.47,0,0,1-1.32.67c-1.32,0-2.84-1.29-5.75-1.29-6,0-10.83,5.35-10.83,12.49s4.85,12.48,10.83,12.48c3.36,0,4.26-1.55,5.94-1.55a1.71,1.71,0,0,1,1.49.83c.17.26.23.33.43.33s.23-.1.23-.36V91.54C244.21,91.41,244,91.34,243.92,91.34Z" transform="translate(-152.74 -72.12)"/></svg>