<svg id="Layer_1" data-name="Layer 1" xmlns="http://www.w3.org/2000/svg" viewBox="0 0 29.14 27.94"><defs><style>.cls-1{fill:#0f0101;}</style></defs><title>NASCA_featherIcon</title><path class="cls-1" d="M30.57,30c-.7,0-1.19-1.24-1.36-2.22-.64-3.89-3.33-8.5-5.62-11.5a27,27,0,0,0-8.3-7.14h0c1.28,1.08,7.67,6.56,9.86,10.79l.4.76a12.33,12.33,0,0,0-1.9-1.21l-.09,0-.09,0a2.65,2.65,0,0,1-1.16.24,5.93,5.93,0,0,1-2.3-.57c.51-.15,1.16-.45,1.19-1v-.26L20,18a8,8,0,0,1-1.14.08h0c-4,0-7-3.24-8.28-4.8a1.88,1.88,0,0,0,1.78-1.68l0-.29-.29,0a10.76,10.76,0,0,1-1.39.08,7.2,7.2,0,0,1-4.64-1.36,16.17,16.17,0,0,1-4.63-8c.79,0,1.79-.09,2.87-.09A27.78,27.78,0,0,1,12,3a17.44,17.44,0,0,1,10.61,8.25l.21.43.19-.44A3.84,3.84,0,0,0,23.26,10l0,0a9.17,9.17,0,0,1,2,2.48s1.38,2.17,2,7h0a4.17,4.17,0,0,0,.48-.87,9.08,9.08,0,0,1,1.63,5.2c0,1.64.61,4.84,1.15,5.61Z" transform="translate(-1.43 -2.06)"/></svg>