<svg id="Layer_1" data-name="Layer 1" xmlns="http://www.w3.org/2000/svg" viewBox="0 0 188 212"><defs><style>.cls-1{fill:#fff;}.cls-2{fill:#323a3b;}.cls-3{fill:none;stroke:#323a3b;stroke-miterlimit:10;stroke-width:1.04px;}</style></defs><title>errorCard</title><rect width="188" height="212"/><rect class="cls-1" width="188" height="117"/><line class="cls-1" x1="188" y1="120.64" y2="120.64"/><rect class="cls-2" y="116.63" width="188" height="8.03"/><circle class="cls-2" cx="74.05" cy="56.53" r="13.03"/><polygon class="cls-2" points="144 121.64 82.72 121.64 89.33 109.63 91.71 105.32 99.05 92.01 101.17 88.15 113.36 66.04 125.42 87.93 127.55 91.79 135.13 105.55 137.26 109.41 144 121.64"/><polygon class="cls-2" points="113.36 66.03 110.22 59.28 108.71 60.01 113.36 68.65 113.36 66.03"/><polygon class="cls-2" points="113.11 66.03 116.25 59.28 117.77 60.01 113.11 68.65 113.11 66.03"/><polygon class="cls-1" points="127.55 91.79 124.06 93.89 118.59 90.59 113.12 93.89 107.63 90.59 102.16 93.89 99.05 92.01 101.17 88.15 102.16 88.75 107.63 85.45 113.12 88.75 118.59 85.45 124.06 88.75 125.42 87.93 127.55 91.79"/><polygon class="cls-1" points="137.26 109.41 135.02 110.77 129.54 107.46 124.06 110.77 118.59 107.46 113.12 110.77 107.63 107.46 102.16 110.77 96.69 107.46 91.21 110.77 89.33 109.63 91.71 105.32 96.69 102.32 102.16 105.62 107.63 102.32 113.12 105.62 118.59 102.32 124.06 105.62 129.53 102.32 135.02 105.62 135.13 105.55 137.26 109.41"/><polygon points="113.11 76.17 109.53 121.64 117.77 121.64 113.11 76.17"/><line class="cls-3" x1="89.33" y1="56.53" x2="98.76" y2="56.53"/><line class="cls-3" x1="88.41" y1="51.3" x2="97.27" y2="48.08"/><line class="cls-3" x1="85.76" y1="46.7" x2="92.98" y2="40.65"/><line class="cls-3" x1="81.69" y1="43.29" x2="86.4" y2="35.13"/><line class="cls-3" x1="76.7" y1="41.48" x2="78.34" y2="32.19"/><line class="cls-3" x1="71.39" y1="41.48" x2="69.75" y2="32.19"/><line class="cls-3" x1="66.4" y1="43.29" x2="61.69" y2="35.13"/><line class="cls-3" x1="62.34" y1="46.7" x2="55.11" y2="40.65"/><line class="cls-3" x1="59.68" y1="51.3" x2="50.82" y2="48.08"/><line class="cls-3" x1="58.76" y1="56.53" x2="49.33" y2="56.53"/><line class="cls-3" x1="59.68" y1="61.76" x2="50.82" y2="64.98"/><line class="cls-3" x1="62.34" y1="66.36" x2="55.11" y2="72.42"/><line class="cls-3" x1="66.4" y1="69.77" x2="61.69" y2="77.93"/><line class="cls-3" x1="71.39" y1="71.59" x2="69.75" y2="80.87"/><line class="cls-3" x1="76.7" y1="71.59" x2="78.34" y2="80.87"/><line class="cls-3" x1="81.69" y1="69.77" x2="86.4" y2="77.93"/><line class="cls-3" x1="85.76" y1="66.36" x2="92.98" y2="72.42"/><line class="cls-3" x1="88.41" y1="61.76" x2="97.27" y2="64.98"/><path class="cls-1" d="M244,175.72h-3.67v3.4h4.09v1h-5.31v-9.44h5.1v1h-3.88v3H244Z" transform="translate(-195 -15)"/><path class="cls-1" d="M246,170.84a12.7,12.7,0,0,1,2.34-.2,3.86,3.86,0,0,1,2.73.77,2.35,2.35,0,0,1,.74,1.79,2.48,2.48,0,0,1-1.78,2.41v0a2.35,2.35,0,0,1,1.39,1.91,15,15,0,0,0,.73,2.59h-1.26a12.16,12.16,0,0,1-.63-2.25c-.28-1.3-.79-1.79-1.89-1.83h-1.15v4.09H246Zm1.22,4.3h1.25c1.3,0,2.13-.71,2.13-1.79s-.88-1.75-2.17-1.76a5,5,0,0,0-1.21.11Z" transform="translate(-195 -15)"/><path class="cls-1" d="M253.56,170.84a12.7,12.7,0,0,1,2.34-.2,3.86,3.86,0,0,1,2.73.77,2.35,2.35,0,0,1,.74,1.79,2.48,2.48,0,0,1-1.78,2.41v0a2.35,2.35,0,0,1,1.39,1.91,15,15,0,0,0,.73,2.59h-1.26a12.16,12.16,0,0,1-.63-2.25c-.28-1.3-.79-1.79-1.89-1.83h-1.15v4.09h-1.22Zm1.22,4.3H256c1.3,0,2.13-.71,2.13-1.79s-.88-1.75-2.17-1.76a5,5,0,0,0-1.21.11Z" transform="translate(-195 -15)"/><path class="cls-1" d="M269.2,175.33c0,3.25-2,5-4.38,5s-4.25-1.93-4.25-4.79,1.86-5,4.38-5S269.2,172.53,269.2,175.33Zm-7.33.15c0,2,1.09,3.82,3,3.82s3-1.78,3-3.92c0-1.88-1-3.84-3-3.84S261.87,173.41,261.87,175.49Z" transform="translate(-195 -15)"/><path class="cls-1" d="M270.78,170.84a12.7,12.7,0,0,1,2.34-.2,3.86,3.86,0,0,1,2.73.77,2.35,2.35,0,0,1,.74,1.79,2.48,2.48,0,0,1-1.78,2.41v0a2.35,2.35,0,0,1,1.39,1.91,15,15,0,0,0,.73,2.59h-1.26a12.16,12.16,0,0,1-.63-2.25c-.28-1.3-.79-1.79-1.89-1.83H272v4.09h-1.22Zm1.22,4.3h1.25c1.3,0,2.13-.71,2.13-1.79s-.88-1.75-2.17-1.76a5,5,0,0,0-1.21.11Z" transform="translate(-195 -15)"/><path class="cls-1" d="M278,174.49a.83.83,0,1,1,1.67,0,.83.83,0,1,1-1.67,0Zm0,4.95a.83.83,0,1,1,1.67,0,.83.83,0,1,1-1.67,0Z" transform="translate(-195 -15)"/><path class="cls-1" d="M240.36,187.51V197h-1.22v-9.44Z" transform="translate(-195 -15)"/><path class="cls-1" d="M242.58,192c0-.7,0-1.27-.06-1.83h1.08l.06,1.09h0a2.34,2.34,0,0,1,2.13-1.25,2,2,0,0,1,1.92,1.36h0a2.79,2.79,0,0,1,.76-.88A2.31,2.31,0,0,1,250,190c.9,0,2.23.59,2.23,2.94v4h-1.21v-3.84c0-1.3-.48-2.09-1.47-2.09a1.6,1.6,0,0,0-1.46,1.12,2,2,0,0,0-.1.62V197h-1.21v-4.06c0-1.08-.48-1.86-1.41-1.86a1.84,1.84,0,0,0-1.62,1.83V197h-1.21Z" transform="translate(-195 -15)"/><path class="cls-1" d="M258,197l-.1-.85h0a2.53,2.53,0,0,1-2.07,1,1.93,1.93,0,0,1-2.07-1.95c0-1.64,1.46-2.54,4.08-2.52v-.14a1.4,1.4,0,0,0-1.54-1.57,3.38,3.38,0,0,0-1.76.5l-.28-.81a4.21,4.21,0,0,1,2.23-.6c2.07,0,2.58,1.42,2.58,2.77v2.54a9.55,9.55,0,0,0,.11,1.63Zm-.18-3.46c-1.34,0-2.87.21-2.87,1.53a1.09,1.09,0,0,0,1.16,1.18,1.69,1.69,0,0,0,1.64-1.13,1.29,1.29,0,0,0,.07-.39Z" transform="translate(-195 -15)"/><path class="cls-1" d="M266.85,190.17c0,.49-.06,1-.06,1.86V196c0,1.55-.31,2.51-1,3.1a3.59,3.59,0,0,1-2.46.81,4.37,4.37,0,0,1-2.25-.56l.31-.94a3.82,3.82,0,0,0,2,.53c1.26,0,2.19-.66,2.19-2.37v-.76h0a2.42,2.42,0,0,1-2.16,1.13,3,3,0,0,1-2.89-3.31c0-2.3,1.5-3.6,3.05-3.6a2.25,2.25,0,0,1,2.12,1.18h0l.06-1Zm-1.27,2.68a1.74,1.74,0,0,0-.07-.56,1.77,1.77,0,0,0-1.72-1.3c-1.18,0-2,1-2,2.56,0,1.33.67,2.44,2,2.44a1.8,1.8,0,0,0,1.71-1.26,2.17,2.17,0,0,0,.1-.66Z" transform="translate(-195 -15)"/><path class="cls-1" d="M269.52,193.79a2.17,2.17,0,0,0,2.33,2.35,4.45,4.45,0,0,0,1.88-.35l.21.88a5.48,5.48,0,0,1-2.25.42,3.15,3.15,0,0,1-3.33-3.42c0-2,1.21-3.66,3.18-3.66,2.21,0,2.8,1.95,2.8,3.19a4.74,4.74,0,0,1,0,.58Zm3.61-.88a1.76,1.76,0,0,0-1.71-2,2,2,0,0,0-1.89,2Z" transform="translate(-195 -15)"/><path class="cls-1" d="M278.81,192c0-.7,0-1.27-.06-1.83h1.09l.07,1.12h0a2.49,2.49,0,0,1,2.24-1.27c.94,0,2.4.56,2.4,2.89v4h-1.23V193c0-1.09-.41-2-1.57-2a1.75,1.75,0,0,0-1.65,1.26,1.78,1.78,0,0,0-.08.57V197h-1.23Z" transform="translate(-195 -15)"/><path class="cls-1" d="M292.72,193.5a3.31,3.31,0,0,1-3.38,3.6,3.22,3.22,0,0,1-3.25-3.49,3.31,3.31,0,0,1,3.36-3.6A3.21,3.21,0,0,1,292.72,193.5Zm-5.38.07c0,1.49.85,2.61,2.06,2.61s2.06-1.11,2.06-2.63c0-1.15-.57-2.61-2-2.61S287.34,192.29,287.34,193.57Z" transform="translate(-195 -15)"/><path class="cls-1" d="M295.75,188.22v1.95h1.76v.94h-1.76v3.66c0,.84.24,1.32.92,1.32a2.75,2.75,0,0,0,.71-.08l.06.92a3,3,0,0,1-1.09.17,1.71,1.71,0,0,1-1.33-.52,2.51,2.51,0,0,1-.48-1.76v-3.7H293.5v-.94h1.05v-1.62Z" transform="translate(-195 -15)"/><path class="cls-1" d="M302,197v-5.84h-1v-.94h1v-.32a3.2,3.2,0,0,1,.78-2.37,2.36,2.36,0,0,1,1.65-.63,2.87,2.87,0,0,1,1.05.2l-.17,1a1.85,1.85,0,0,0-.79-.15c-1,0-1.32.92-1.32,2v.36h1.64v.94h-1.64V197Z" transform="translate(-195 -15)"/><path class="cls-1" d="M311.91,193.5a3.31,3.31,0,0,1-3.38,3.6,3.22,3.22,0,0,1-3.25-3.49,3.31,3.31,0,0,1,3.36-3.6A3.21,3.21,0,0,1,311.91,193.5Zm-5.38.07c0,1.49.85,2.61,2.06,2.61s2.06-1.11,2.06-2.63c0-1.15-.57-2.61-2-2.61S306.53,192.29,306.53,193.57Z" transform="translate(-195 -15)"/><path class="cls-1" d="M319.14,195.1c0,.7,0,1.32.06,1.85H318.1l-.07-1.11h0a2.55,2.55,0,0,1-2.24,1.26c-1.06,0-2.34-.59-2.34-3v-4h1.23v3.75c0,1.29.39,2.16,1.51,2.16a1.74,1.74,0,0,0,1.74-1.75v-4.16h1.23Z" transform="translate(-195 -15)"/><path class="cls-1" d="M321.18,192c0-.7,0-1.27-.06-1.83h1.09l.07,1.12h0a2.49,2.49,0,0,1,2.24-1.27c.94,0,2.4.56,2.4,2.89v4h-1.23V193c0-1.09-.41-2-1.57-2a1.75,1.75,0,0,0-1.65,1.26,1.78,1.78,0,0,0-.08.57V197h-1.23Z" transform="translate(-195 -15)"/><path class="cls-1" d="M334.8,187v8.19c0,.6,0,1.29.06,1.75h-1.11l-.06-1.18h0a2.51,2.51,0,0,1-2.31,1.33c-1.64,0-2.9-1.39-2.9-3.45,0-2.25,1.39-3.64,3-3.64a2.27,2.27,0,0,1,2,1h0v-4Zm-1.23,5.93a2.18,2.18,0,0,0-.06-.52,1.81,1.81,0,0,0-1.78-1.43c-1.27,0-2,1.12-2,2.62s.67,2.51,2,2.51a1.85,1.85,0,0,0,1.81-1.47,2.15,2.15,0,0,0,.06-.53Z" transform="translate(-195 -15)"/><path class="cls-1" d="M336.41,196.22a.83.83,0,0,1,.84-.88.88.88,0,1,1-.84.88Z" transform="translate(-195 -15)"/></svg>